<svg width="600" height="610" viewBox="0 0 600 610" fill="none" xmlns="http://www.w3.org/2000/svg">
<path fill-rule="evenodd" clip-rule="evenodd" d="M270.093 0.385568C269.588 0.592928 268.669 0.86474 268.051 0.989527C267.434 1.11431 264.953 1.76399 262.539 2.43343C254.207 4.74362 252.836 5.08627 251.412 5.21374C249.549 5.38074 244.251 6.30201 243.8 6.53738C243.607 6.63828 241.704 7.20064 239.57 7.78751C237.437 8.37417 235.14 9.02817 234.466 9.24088C233.793 9.45359 231.948 9.94965 230.368 10.3434C228.787 10.7371 226.353 11.445 224.958 11.9168C223.562 12.3883 222.216 12.8127 221.967 12.8597C221.717 12.9064 221.258 13.0469 220.946 13.1714C220.634 13.2962 218.45 14.0256 216.092 14.7924C211.778 16.1952 203.404 19.2804 199.044 21.0732C197.753 21.604 194.675 22.8706 192.205 23.8879C189.734 24.9049 186.792 26.1952 185.666 26.7553C183.491 27.8374 181.744 28.2373 181.197 27.7789C180.828 27.4708 180.351 27.7013 179.023 28.8276C178.51 29.2625 178.031 29.6181 177.958 29.6181C177.77 29.6181 174.73 31.4659 174.238 31.8789C173.593 32.4209 171.304 33.7198 166.786 36.1073C164.484 37.3238 161.085 39.201 159.232 40.2787C157.379 41.3565 155.358 42.5132 154.741 42.8494C154.123 43.1855 152.745 44.0407 151.678 44.7496C148.976 46.5455 145.047 48.8964 142.389 50.308C141.154 50.9641 139.362 51.9177 138.408 52.4273C137.453 52.937 136.775 53.2428 136.9 53.1071C137.463 52.4961 142.506 49.1054 146.115 46.9112C147.49 46.0747 148.616 45.3036 148.616 45.1975C148.616 45.0913 148.777 44.8814 148.973 44.7309C149.301 44.4795 149.303 44.4568 148.986 44.4509C148.797 44.4472 148.407 44.5347 148.119 44.645C147.831 44.7556 147.595 44.7772 147.595 44.6934C147.595 44.6096 148.56 43.6325 149.739 42.522C150.918 41.4115 151.882 40.4054 151.882 40.2864C151.882 40.1492 151.773 40.1612 151.585 40.3185C151.422 40.4552 151.206 40.5162 151.105 40.4536C151.005 40.3912 150.565 40.6043 150.127 40.9274C149.689 41.2507 147.86 42.3451 146.064 43.3599C142.928 45.1308 141.033 46.2786 136.366 49.2327C134.304 50.5378 132.284 52.4306 130.064 55.1376L129.377 55.9757H130.217C131.084 55.9757 131.237 56.1242 130.813 56.5523C130.678 56.6882 130.643 56.7994 130.736 56.7994C130.829 56.7994 128.987 58.1574 126.643 59.8175C124.299 61.4774 121.078 63.834 119.485 65.0542C117.005 66.9542 116.553 67.2289 116.336 66.9658C116.121 66.704 115.747 66.9907 113.822 68.8946C112.578 70.1246 111.029 71.4869 110.38 71.922C107.419 73.9081 103.742 77.2979 98.5268 82.848C96.8242 84.6601 95.1097 86.3975 94.7167 86.7088C92.7669 88.2534 92.4217 88.4789 92.1607 88.3778C91.9813 88.3084 91.7739 88.5186 91.5903 88.956C91.4317 89.3341 90.8637 90.1773 90.3282 90.8299C89.6107 91.704 89.288 91.961 89.1022 91.8055C88.8096 91.5605 88.8747 91.4911 87.2718 93.7541C86.3109 95.1105 85.8833 95.5194 84.7964 96.1222C83.8135 96.667 82.5001 97.8364 79.5847 100.763L75.6868 104.675L75.8356 103.342C75.9702 102.137 75.9532 102.035 75.6596 102.28C75.0108 102.824 73.087 105.533 72.3516 106.94C71.9371 107.733 71.4363 108.614 71.2387 108.897C71.0411 109.18 70.2263 110.709 69.428 112.294C68.6297 113.88 67.42 116.243 66.74 117.545C65.6097 119.71 64.0099 123.876 62.9017 127.54C62.6606 128.337 62.1736 129.449 61.8198 130.011C60.7931 131.642 55.5622 140.939 54.7082 142.652C54.2803 143.51 52.6819 146.272 51.1564 148.791C47.7242 154.457 44.4696 160.34 42.7175 164.046C39.8178 170.179 37.9331 174.248 37.428 175.468C37.1365 176.171 36.5444 177.534 36.1124 178.497C34.9105 181.175 32.4714 187.088 31.9501 188.587C31.6941 189.323 31.2986 190.343 31.071 190.852C30.4457 192.253 27.0859 201.52 26.1437 204.443C24.7579 208.742 22.1113 217.454 21.8583 218.548C21.3853 220.595 19.7865 226.833 19.1932 228.947C18.8594 230.136 18.2973 232.592 17.9441 234.404C17.5911 236.216 16.9027 239.737 16.4141 242.229C14.3286 252.868 12.2839 268.685 11.7288 278.47C11.1763 288.215 11.0369 303.597 11.4248 312.035C13.2582 351.919 23.5296 391.796 41.3653 428.276C47.5388 440.903 51.9161 448.62 60.6953 462.356C70.5639 477.795 82.6349 492.727 96.6527 506.834C100.457 510.663 103.353 513.272 116.841 525.026C120.138 527.899 127.32 533.72 131.16 536.631C153.444 553.525 176.012 565.892 203.352 576.192C205.867 577.14 208.73 578.167 209.713 578.475C211.207 578.942 211.551 579.132 211.806 579.629C211.973 579.956 212.111 580.361 212.111 580.529C212.111 581.026 208.528 584.564 207.989 584.599C207.077 584.659 206.268 584.535 203.658 583.933C202.21 583.599 200.99 583.361 200.947 583.404C200.904 583.447 201.124 583.648 201.437 583.85C201.749 584.053 203.015 585.023 204.25 586.007C208.908 589.718 210.495 590.561 214.56 591.483C216.188 591.852 217.554 592.119 217.596 592.077C217.637 592.035 217.258 591.51 216.752 590.91C215.716 589.68 214.765 588.306 214.765 588.04C214.765 587.943 215.502 587.863 216.404 587.863C218.955 587.863 219.963 588.445 221.425 590.759C222.162 591.926 222.176 591.935 223.826 592.375C225.969 592.946 228.649 594.118 229.114 594.687C229.672 595.37 230.46 595.288 234.364 594.138C238.292 592.981 247.827 590.76 249.779 590.547C250.789 590.437 252.104 590.212 252.7 590.047C253.296 589.882 253.751 589.81 253.71 589.886C252.101 592.935 252.481 594.263 255.549 596.309C256.418 596.889 258.736 598.155 260.701 599.123C270.44 603.921 272.536 605.005 272.425 605.186C272.359 605.294 272.128 605.326 271.913 605.257C271.698 605.189 271.522 605.191 271.522 605.263C271.522 605.451 275.531 607.322 278.193 608.375L280.474 609.278L283.399 609.276C290.236 609.272 294.454 608.602 300.922 606.492C306.621 604.632 307.141 604.541 313.376 604.317C316.351 604.209 321.312 603.978 324.4 603.804C356.927 601.962 390.199 594.259 420.94 581.454C425.891 579.391 436.942 574.028 442.815 570.838C445.229 569.526 448.455 567.773 449.983 566.941C457.202 563.011 463.39 559.137 469.969 554.431C498.268 534.184 524.408 508.082 546.836 477.674C547.735 476.456 549.398 474.226 550.533 472.717C553.369 468.947 557.603 462.499 561.621 455.829L562.7 454.039L562.704 451.744C562.708 449.691 562.762 449.352 563.212 448.539C563.497 448.025 563.81 447.689 563.933 447.766C564.062 447.847 564.091 447.804 564.005 447.663C563.813 447.35 565.923 443.282 566.191 443.449C566.305 443.52 566.334 443.476 566.257 443.349C566.18 443.223 566.517 442.305 567.007 441.309C567.497 440.313 568.102 438.804 568.352 437.954C569.726 433.289 571.391 429.491 572.424 428.672C573.206 428.051 574.121 423.746 573.471 423.746C573.354 423.746 572.991 424.347 572.664 425.082C572.085 426.383 569.648 429.576 569.061 429.803C568.822 429.896 568.85 430.03 569.211 430.523C569.643 431.112 569.627 431.945 569.188 431.671C569.073 431.599 569.003 431.662 569.034 431.811C569.065 431.96 568.801 432.221 568.447 432.392C567.855 432.678 567.733 432.927 566.934 435.483C566.455 437.012 565.855 438.542 565.6 438.883C565.345 439.223 564.584 440.65 563.909 442.054L562.683 444.606L562.673 438.964L562.663 433.321L563.314 431.679C563.824 430.395 564.215 429.79 565.109 428.899C566.032 427.98 566.494 427.248 567.517 425.084C568.213 423.612 568.967 422.083 569.193 421.687C569.941 420.376 571.374 417.489 572.038 415.958C572.397 415.128 572.953 414.032 573.274 413.522C573.594 413.012 574.509 410.953 575.306 408.947C576.103 406.941 577.256 404.386 577.867 403.27C578.479 402.154 578.937 401.173 578.887 401.09C578.72 400.818 579.874 397.918 580.409 397.266C580.696 396.915 581.044 396.452 581.182 396.236C581.394 395.904 581.401 395.932 581.233 396.424C580.98 397.16 580.976 398.006 581.226 398.006C581.537 398.006 581.606 397.776 581.945 395.625C582.122 394.5 582.767 391.818 583.378 389.666C585.017 383.887 586.338 377.785 587.265 371.7C587.339 371.219 587.482 370.825 587.585 370.825C587.687 370.825 587.771 370.694 587.771 370.533C587.771 370.373 587.862 370.211 587.974 370.173C588.086 370.135 588.233 369.085 588.302 367.839C588.38 366.404 588.715 364.234 589.214 361.92C590.168 357.491 590.468 355.323 590.385 353.441C590.287 351.195 589.919 351.558 589.625 354.192C589.483 355.469 589.313 356.789 589.249 357.125L589.131 357.736L588.909 356.935C588.532 355.582 588.254 355.833 587.847 357.894C587.579 359.249 587.481 360.547 587.511 362.336C587.547 364.431 587.494 364.964 587.198 365.455C586.85 366.032 586.844 365.983 586.922 363.263C586.996 360.732 586.963 360.401 586.563 359.592C586.261 358.983 586.166 358.529 586.261 358.148C586.367 357.725 586.332 357.615 586.115 357.687C585.648 357.842 585.253 359.682 585.284 361.559C585.301 362.521 585.241 363.865 585.152 364.544L584.991 365.78L584.665 364.727C584.486 364.148 584.228 363.496 584.093 363.278C583.893 362.954 583.964 362.364 584.473 360.109C584.817 358.584 585.372 355.855 585.707 354.043C586.628 349.059 587.114 346.955 587.559 346.028C587.901 345.315 587.944 344.922 587.843 343.438C587.7 341.357 587.971 337.665 588.723 331.444C589.15 327.916 589.315 327.019 589.451 327.489C589.548 327.823 589.771 328.39 589.947 328.749C590.187 329.239 590.217 329.545 590.066 329.984L589.865 330.568L589.714 329.796C589.631 329.371 589.475 329.023 589.368 329.023C589.26 329.023 589.219 329.186 589.275 329.384C589.332 329.582 589.53 330.771 589.716 332.026C590.008 333.992 590.026 334.929 589.847 338.821C589.638 343.376 589.66 346.111 589.909 346.518C590.156 346.92 590.385 346.541 590.527 345.497C590.604 344.93 590.74 344.467 590.828 344.467C591.093 344.467 591.42 343.448 591.84 341.318C592.197 339.506 592.208 339.215 591.944 338.46C591.546 337.323 591.569 337.046 592.156 335.889C592.76 334.699 593.202 332.26 593.401 329.023C593.544 326.702 593.73 326.157 594.237 326.582C594.696 326.966 594.916 326.546 594.933 325.253C594.95 323.989 594.952 323.984 595.231 324.626C595.537 325.329 596.164 328.694 597.164 334.995C598.163 341.29 598.958 344.144 599.79 344.424C600.006 344.497 600.042 344.298 599.958 343.514C599.821 342.237 599.291 335.062 599.017 330.774C598.546 323.42 597.735 314.35 597.321 311.829C596.953 309.583 596.877 308.225 596.853 303.387L596.825 297.621L596.094 295.047C595.692 293.631 594.941 291.599 594.425 290.532C593.91 289.464 593.488 288.421 593.488 288.215C593.488 288.009 593.396 287.84 593.283 287.84C593.011 287.84 593.025 288.34 593.38 291.231C593.656 293.475 593.776 293.88 594.817 296.081C596.052 298.694 596.479 300.448 596.036 301.086C595.78 301.455 595.769 301.455 595.651 301.08C595.584 300.868 595.124 300.352 594.629 299.935C594.085 299.477 593.479 298.672 593.098 297.902C592.489 296.674 592.467 296.531 592.464 293.933C592.462 291.307 592.283 289.805 591.235 283.618C590.77 280.871 590.593 280.381 590.208 280.769C590.054 280.924 590.144 282.341 590.514 285.598C590.803 288.133 591.087 290.648 591.147 291.186C591.215 291.793 591.176 292.164 591.044 292.164C590.928 292.164 590.826 292.373 590.816 292.627C590.807 292.882 590.63 292.339 590.424 291.419C589.956 289.327 589.471 287.745 588.398 284.812C587.538 282.458 586.75 279.649 586.75 278.934C586.75 278.571 586.804 278.583 587.378 279.07C588.203 279.77 588.383 279.743 588.383 278.916C588.383 278.447 588.161 277.94 587.683 277.32C586.661 275.994 585.853 274.23 585.143 271.766C584.054 267.994 583.648 265.601 584.096 265.601C584.208 265.601 584.3 265.873 584.3 266.206C584.3 266.8 584.61 267.21 584.864 266.953C584.935 266.882 584.731 266.016 584.411 265.028C583.794 263.124 583.079 260.487 583.087 260.144C583.089 260.031 583.235 260.206 583.411 260.533C583.659 260.994 583.771 261.064 583.91 260.842C584.009 260.684 584.091 260.362 584.093 260.126C584.095 259.891 583.184 256.987 582.07 253.673C580.186 248.072 579.922 247.171 580.503 248.335C580.626 248.583 580.848 248.826 580.996 248.875C581.305 248.978 581.168 247.884 580.718 246.656C580.572 246.26 579.574 243.526 578.5 240.582C577.425 237.637 576.302 234.702 576.004 234.059C575.52 233.018 575.494 232.857 575.769 232.58C575.938 232.409 576.14 231.876 576.216 231.395C576.336 230.637 576.276 230.409 575.763 229.682C575.438 229.221 575.05 228.613 574.901 228.329C574.476 227.521 572.874 223.106 572.971 223.008C573.145 222.832 577.156 231.413 578.442 234.713C582.041 243.951 583.822 250.041 585.928 260.303C586.387 262.542 587.17 265.739 587.667 267.407C588.165 269.075 588.902 271.775 589.306 273.408C589.779 275.324 590.319 276.929 590.83 277.938C591.265 278.797 591.681 279.963 591.756 280.53C592.02 282.534 592.566 284.339 592.909 284.339C593.012 284.339 593.07 284.177 593.037 283.979C592.997 283.738 593.13 283.597 593.436 283.553C593.718 283.512 593.896 283.344 593.896 283.117C593.896 282.574 593.069 280.597 592.636 280.105C592.161 279.564 592.164 278.94 592.648 277.647C593.165 276.262 593.372 274.306 593.082 273.537C592.956 273.202 592.203 272.016 591.408 270.901C590.612 269.785 589.749 268.345 589.489 267.7C588.857 266.133 588.444 263.81 588.743 263.508C588.905 263.345 589.335 264.023 590.302 265.97C591.036 267.448 591.732 268.716 591.848 268.788C592.412 269.14 591.722 265.106 590.743 262.331C590.568 261.836 590.425 261.396 590.425 261.353C590.425 261.064 591.024 261.464 592.467 262.718C593.702 263.791 594.278 264.159 594.721 264.159C595.516 264.159 595.653 263.567 595.335 261.519C594.977 259.217 594.437 257.154 592.981 252.525C591.462 247.693 591.139 246.48 590.722 244.042C590.551 243.045 589.639 239.449 588.694 236.051C586.412 227.84 586.128 226.665 586.1 225.282C586.081 224.37 585.904 223.761 585.308 222.553C583.819 219.536 581.697 213.876 580.912 210.826C580.635 209.75 579.802 207.341 579.062 205.472C577.676 201.973 577.344 201.22 575.015 196.309C573.258 192.605 570.766 186.707 570.424 185.444C570.271 184.879 570.211 184.073 570.283 183.543C570.383 182.805 570.333 182.551 570.028 182.259C569.319 181.579 566.451 175.316 566.631 174.842C566.69 174.689 566.663 174.61 566.571 174.667C566.335 174.814 563.83 169.073 564.006 168.786C564.086 168.656 564.062 168.605 563.953 168.673C563.845 168.74 563.461 168.192 563.099 167.453C562.738 166.715 562.515 166.155 562.602 166.21C562.689 166.264 562.735 162.372 562.704 157.561C562.662 151.171 562.707 148.851 562.873 148.954C563.854 149.566 554.43 134.492 549.416 127.429C538.972 112.717 529.668 101.481 518.175 89.6981C515.175 86.6227 513.522 85.1403 510.023 82.388C507.608 80.4893 503.833 77.2786 501.633 75.2534C494.108 68.3261 486.409 61.805 481.336 58.0619C476.455 54.4614 462.001 44.9455 455.167 40.8335C439.855 31.6213 421.615 23.4093 401.574 16.7054C398.037 15.5222 394.345 14.2391 393.37 13.8543C385.832 10.8786 364.235 5.96266 348.696 3.68562C334.574 1.61614 322.707 0.773312 306.536 0.691357C299.541 0.655733 296.747 0.573571 296.226 0.387833C294.979 -0.0569505 288.131 -0.116873 283.479 0.276225C278.727 0.67756 272.525 0.648732 272.104 0.223304C271.766 -0.117285 271.208 -0.0721884 270.093 0.385568ZM173.115 29.1155C170.589 30.4004 167.664 31.7994 166.615 32.2243C164.611 33.0364 163.671 33.7275 159.988 37.0975C158.9 38.0935 158.266 38.8155 158.379 38.93C158.492 39.0443 159.246 38.7276 160.291 38.1265C161.24 37.5806 163.507 36.3465 165.329 35.3839C168.815 33.5417 170.413 32.472 170.777 31.7354C170.913 31.4601 172.09 30.7396 173.878 29.837C176.825 28.3495 178.015 27.5404 178.015 27.0258C178.015 26.866 177.946 26.7452 177.862 26.7573C177.778 26.7693 175.642 27.8306 173.115 29.1155ZM308.169 38.4796C309.629 38.59 312.156 38.7269 313.784 38.784C321.217 39.0441 331.563 40.3613 340.325 42.1635C342.515 42.6139 345.133 43.1344 346.144 43.3206C349.414 43.9223 364.018 47.8866 364.406 48.2776C364.675 48.549 362.3 47.9657 359.108 46.9767C356.018 46.0191 350.815 44.8431 349.754 44.8623C349.094 44.8744 349.965 45.2088 351.044 45.3573C352.013 45.4907 359.437 47.3681 363.221 48.4366C364.28 48.7356 365.06 48.8602 365.172 48.748C365.37 48.548 367.501 49.0972 367.687 49.3962C367.746 49.4901 368.435 49.7042 369.218 49.8719C370.002 50.0393 372.067 50.683 373.808 51.3022C391.942 57.7536 396.19 59.3309 404.739 62.7895C408.689 64.3879 411.842 65.8493 415.865 67.9472C425.118 72.7716 428.203 74.2998 428.483 74.198C428.629 74.1447 428.699 74.1832 428.638 74.2833C428.494 74.5172 429.105 74.7581 429.39 74.5802C429.512 74.5044 429.548 74.5413 429.473 74.6636C429.395 74.7917 430.038 75.2639 431.024 75.8028C431.951 76.3089 433.054 76.9289 433.475 77.1806C433.896 77.432 434.24 77.5885 434.24 77.5281C434.24 77.4676 433.456 76.972 432.498 76.4267L430.756 75.435L430.787 73.0857C430.818 70.7466 430.816 70.7349 430.284 70.4536C429.989 70.2981 429.749 70.1198 429.749 70.0576C429.749 69.9952 430.231 70.2283 430.82 70.5755C431.41 70.9229 431.87 71.2979 431.844 71.4089C431.817 71.5199 431.947 71.552 432.132 71.4801C432.342 71.399 432.419 71.4319 432.336 71.5672C432.26 71.691 432.356 71.7727 432.558 71.7567C432.753 71.7412 432.894 71.8335 432.87 71.9616C432.846 72.0898 432.984 72.1825 433.176 72.1675C433.368 72.1526 433.504 72.2527 433.477 72.3903C433.447 72.5445 433.558 72.5902 433.766 72.5097C434.01 72.4152 434.057 72.4543 433.936 72.652C433.825 72.8332 433.848 72.8754 434.004 72.778C434.257 72.6207 435.131 73.1293 434.94 73.3223C434.877 73.3857 434.992 73.4238 435.196 73.4067C435.407 73.3892 435.543 73.4938 435.511 73.6484C435.48 73.7986 435.545 73.8649 435.656 73.7961C436.192 73.4621 445.669 80.2584 453.431 86.5424C455.957 88.5876 459.908 91.8827 462.212 93.8647C464.515 95.8466 467.133 98.0681 468.031 98.8014C473.519 103.285 479.353 108.479 482.678 111.841C484.783 113.97 486.506 115.836 486.506 115.987C486.506 116.138 487.247 117.066 488.152 118.049C489.374 119.376 489.783 119.959 489.737 120.31C489.703 120.57 489.799 120.932 489.949 121.115C490.187 121.404 490.128 121.503 489.492 121.882L488.762 122.316L490.013 123.782C491.845 125.928 494.031 128.958 494.469 129.957C494.679 130.437 494.948 131.607 495.066 132.558C495.188 133.539 495.452 134.578 495.675 134.96C496.215 135.884 495.997 135.972 495.057 135.21C494.621 134.857 494.102 134.556 493.903 134.541C493.705 134.526 493.423 134.44 493.277 134.349C493.131 134.258 492.98 134.216 492.942 134.256C492.903 134.295 493.579 135.764 494.445 137.519C496.026 140.728 499.142 146.092 501.98 150.492C508.055 159.91 514.316 170.404 516.058 174.09C516.242 174.479 516.483 174.768 516.592 174.731C516.985 174.599 516.863 173.639 516.311 172.525C515.374 170.634 514.5 167.535 513.532 162.67C512.595 157.966 512.2 156.478 511.695 155.749C511.068 154.843 511.46 154.764 512.234 155.64C514.25 157.921 514.889 159.263 515.393 162.266C515.753 164.413 516.263 166.049 516.681 166.399C516.988 166.656 516.938 166.172 516.41 163.774C516.097 162.358 516.313 161.823 516.886 162.59C518.433 164.66 525.121 176.228 528.404 182.513C529.587 184.778 531.267 187.975 532.138 189.617C533.601 192.375 535.226 195.686 537.796 201.148C538.831 203.347 540.261 207.171 541.821 211.909C542.296 213.354 542.769 214.484 542.87 214.421C542.971 214.357 543.001 214.446 542.936 214.618C542.665 215.33 544.696 220.448 545.14 220.172C545.278 220.085 545.311 220.122 545.223 220.266C545.07 220.516 545.699 221.773 545.911 221.641C545.979 221.599 546.048 221.72 546.064 221.909C546.08 222.1 546.277 222.811 546.501 223.49C546.726 224.17 547.036 225.374 547.191 226.167L547.473 227.609L547.516 224.314C547.54 222.502 547.467 220.701 547.354 220.312C547.241 219.923 547.185 219.57 547.228 219.526C547.423 219.33 548.592 223.691 548.478 224.189C548.401 224.524 548.422 224.626 548.532 224.459C548.777 224.09 549.467 226.707 549.291 227.336C549.205 227.645 549.222 227.721 549.34 227.55C549.636 227.122 552.065 236.477 552.116 238.244C552.132 238.77 552.197 239.169 552.261 239.129C552.473 239 554.247 246.879 555.207 252.216C555.726 255.104 556.238 257.628 556.344 257.826C556.917 258.897 558.959 275.54 558.733 277.297C558.679 277.716 558.704 278.846 558.789 279.809C559.275 285.313 559.384 304.422 558.969 311.212C558.523 318.504 558.168 323.288 557.884 325.832C557.72 327.304 557.481 329.945 557.353 331.7C557.109 335.042 556.578 339.77 555.918 344.467C554.962 351.271 551.691 365.239 549.165 373.296C548.793 374.485 548.481 375.504 548.473 375.561C548.384 376.19 547.432 378.856 547.297 378.856C547.199 378.856 547.168 378.937 547.229 379.036C547.289 379.135 547.156 379.714 546.932 380.323C546.578 381.286 546.52 381.038 546.847 379.956C546.91 379.747 546.71 380.04 546.403 380.606C545.572 382.141 543.823 386.307 543.797 386.815C543.784 387.059 543.719 387.225 543.651 387.183C543.584 387.141 543.295 387.636 543.01 388.283C539.939 395.261 538.589 398.178 535.955 403.519C533.906 407.677 532.415 410.421 531.477 411.756C530.705 412.858 529.266 415.154 528.28 416.858C527.293 418.563 525.761 420.96 524.873 422.184C523.986 423.409 523.314 424.499 523.38 424.606C523.45 424.72 523.641 424.68 523.837 424.509C524.36 424.055 525.505 423.727 525.864 423.93C526.228 424.136 526.423 423.921 522.913 427.186C521.31 428.679 520.522 429.575 520.199 430.275C519.419 431.965 517.649 434.46 515.482 436.925C514.215 438.365 512.363 440.866 510.753 443.308C508.441 446.816 507.74 447.701 505.21 450.309C503.617 451.952 501.353 454.415 500.178 455.784C492.992 464.154 484.672 473.002 480.043 477.197C478.677 478.434 476.243 480.691 474.632 482.212C471.632 485.044 471.281 485.371 467.417 488.933C465.215 490.962 458.704 496.567 455.677 499.039C452.542 501.6 444.849 507.331 441.59 509.534C430.428 517.078 422.01 521.654 410.557 526.403C403.587 529.293 400.125 530.669 400.046 530.58C399.819 530.325 400.476 529.553 401.253 529.161C401.767 528.903 402.187 528.618 402.187 528.528C402.187 528.438 401.773 528.395 401.268 528.433C400.762 528.472 400.349 528.477 400.349 528.444C400.349 528.413 401.107 528.136 402.033 527.829C406.442 526.372 412.819 523.343 420.765 518.931C438.692 508.979 455.017 497.149 466.578 485.731C470.035 482.317 473.931 478.008 480.177 470.688C481.693 468.912 483.51 466.804 484.216 466.004C484.921 465.205 485.427 464.51 485.339 464.46C485.251 464.41 483.893 465.763 482.321 467.465C473.081 477.472 465.506 485.062 459.94 489.889C435.904 510.736 409.806 524.977 381.158 532.876C368.943 536.245 360.806 537.638 342.06 539.573C339.253 539.862 335.027 540.329 332.669 540.61C330.311 540.891 327.922 541.174 327.361 541.239C325.513 541.453 318.027 542.744 314.907 543.386C313.222 543.733 310.834 544.201 309.598 544.427C302.494 545.726 299.85 546.62 299.166 547.954C298.81 548.648 299.039 549.33 300.157 550.916C301.07 552.21 301.224 552.739 300.911 553.5C300.606 554.242 298.623 555.711 296.816 556.534C295.6 557.088 295.399 557.118 293.856 556.987C291.724 556.806 290.298 556.114 288.466 554.371L287.086 553.057L285.684 553.262C284.913 553.374 283.237 553.468 281.959 553.47C279.756 553.474 279.582 553.443 278.58 552.865C277.096 552.009 273.653 550.642 269.55 549.282C265.327 547.882 254.956 545.238 253.687 545.238C252.885 545.238 252.665 545.128 251.834 544.314C251.315 543.806 250.664 543.332 250.386 543.262C249.948 543.151 249.881 543.203 249.881 543.656C249.881 544.137 250.233 544.536 251.185 545.135C251.377 545.256 251.447 545.443 251.354 545.589C251.236 545.773 250.435 545.599 248.241 544.916C246.616 544.409 243.736 543.619 241.841 543.16C239.945 542.701 237.786 542.138 237.043 541.909C235.482 541.429 225.577 537.354 222.115 535.768C220.823 535.177 217.148 533.601 213.948 532.267C202.655 527.559 200.902 526.751 196.078 524.024C193.108 522.346 190.421 520.976 187.946 519.877C185.077 518.604 180.895 516.276 174.442 512.359C165.61 506.998 162.583 504.772 154.607 497.774C136.128 481.561 121.484 465.685 109.209 448.559C107.748 446.52 105.786 443.88 104.85 442.69C101.623 438.594 99.2536 435.163 96.8077 431.048C80.4252 403.48 70.6123 380.219 64.9315 355.484C61.7037 341.43 60.4824 328.936 60.2823 307.917C60.1571 294.771 60.3384 289.209 61.0099 285.575C61.2296 284.385 61.8243 281.235 62.3317 278.573C62.8388 275.912 63.6312 271.279 64.0922 268.278C65.9674 256.073 69.3318 241.455 72.0492 233.704C72.6209 232.073 73.0629 230.661 73.031 230.567C72.9453 230.313 70.471 233.718 70.1123 234.584C69.7828 235.38 69.1963 235.599 69.1963 234.927C69.1963 234.705 69.3649 234.357 69.5713 234.155C70.0533 233.681 70.3688 232.846 71.5353 228.955C72.0823 227.131 73.0615 224.537 73.8281 222.88C75.744 218.742 76.2642 217.194 76.8542 213.872C77.4528 210.504 77.6041 209.955 78.4022 208.252C79.396 206.133 79.4099 204.123 78.4195 205.73C77.1829 207.736 75.9845 209.336 75.8093 209.215C75.3344 208.884 75.6317 207.768 77.1413 204.212C79.5334 198.578 79.6949 198.242 81.1139 195.951C82.0022 194.516 82.5914 193.272 82.9501 192.074C83.364 190.691 83.5904 190.249 83.9975 190.029C84.8107 189.59 85.0209 189.967 84.7059 191.299C84.4724 192.286 83.7778 194.459 83.3772 195.455C83.2594 195.748 83.3048 195.819 83.5732 195.764C83.8068 195.715 84.2951 194.771 85.0483 192.911C85.6677 191.382 86.2792 189.877 86.407 189.565C86.535 189.254 86.7425 188.999 86.8682 188.999C87.1438 188.999 89.2038 184.693 89.8235 182.821C90.1942 181.701 90.2443 181.223 90.1299 179.89C89.9697 178.022 90.4174 175.893 91.5852 172.972C92.4972 170.69 93.8861 167.995 94.1501 167.995C94.2787 167.995 94.3243 168.778 94.2728 170.106C94.1964 172.076 94.1395 172.315 93.4157 173.694C92.9894 174.507 92.2816 175.564 91.8429 176.043C90.7189 177.271 90.9674 177.505 93.3102 177.426L95.105 177.365L95.4408 176.541C95.6254 176.088 95.9529 175.318 96.1683 174.831C96.3836 174.343 96.6123 173.601 96.6762 173.183C96.7403 172.765 96.9226 171.791 97.0817 171.019C97.2407 170.247 97.3708 169.594 97.3708 169.566C97.3708 169.441 98.7691 167.995 98.8906 167.995C98.9663 167.995 98.9718 168.087 98.9028 168.2C98.834 168.312 98.6576 168.845 98.5112 169.384C98.3646 169.922 98.1744 170.53 98.0882 170.734C97.9537 171.053 98.007 171.086 98.468 170.969C99.0909 170.812 99.0949 170.833 98.7816 172.648C98.4081 174.81 98.755 174.846 99.9588 172.768C100.774 171.362 100.98 170.832 100.893 170.373C100.832 170.048 100.948 168.751 101.15 167.492L101.519 165.201L101.043 162.531C100.401 158.928 100.301 156.319 100.739 154.606C100.927 153.872 101.725 151.882 102.513 150.183C104.034 146.903 104.484 145.763 105.022 143.829C105.399 142.473 105.287 142.116 104.721 142.873C104.511 143.153 104.285 143.326 104.218 143.259C104.086 143.125 109.523 135.198 110.908 133.504C111.371 132.938 113.055 131.038 114.65 129.283C116.246 127.527 118.064 125.442 118.692 124.649C119.672 123.411 119.815 123.121 119.707 122.59C119.638 122.251 119.521 121.906 119.447 121.825C119.372 121.744 118.67 122.182 117.886 122.799C116.436 123.939 115.95 124.152 115.95 123.647C115.95 123.386 117.534 122.152 121.561 119.275C123.407 117.958 129.301 113.091 131.794 110.827C132.858 109.86 134.311 108.838 135.868 107.959C142.217 104.376 152.263 96.8515 154.861 93.7339C156.612 91.6325 157.522 90.4555 157.642 90.1392C157.878 89.5122 161.42 88.7491 162.376 89.1189C162.92 89.3291 163.014 89.2929 163.53 88.6718L164.092 87.996L163.387 87.8722C162.169 87.6585 162.214 87.4163 163.646 86.4669C165.243 85.4074 173.32 81.1772 175.337 80.3435L176.748 79.7601L176.456 79.1897C176.191 78.6728 176.198 78.6084 176.528 78.5034C177.113 78.3172 177.638 78.0378 178.8 77.2936C179.4 76.9096 180.594 76.3449 181.454 76.0385C183.286 75.3862 185.247 74.5885 189.023 72.9607C190.529 72.3112 192.022 71.7665 192.34 71.7505C192.776 71.7282 193.383 71.2579 194.807 69.8387C195.846 68.8034 197.246 67.5724 197.919 67.1035C199.274 66.158 199.292 66.1652 199.55 67.7645C199.686 68.6034 199.797 68.693 200.145 68.2435C200.269 68.0823 201.439 67.6177 202.743 67.211C204.139 66.7761 206.188 65.9113 207.721 65.1113C212.476 62.6281 217.253 60.5078 220.016 59.6532C222.38 58.9222 223.292 58.7694 222.894 59.1711C222.835 59.2296 219.734 60.6663 216 62.3635C209.855 65.1572 208.072 66.0886 208.039 66.5212C208.032 66.6019 208.759 66.3519 209.653 65.966C212.344 64.8042 218.836 62.4177 220.638 61.9278C222.087 61.5338 222.383 61.3759 222.729 60.8119C223.125 60.1653 223.148 60.1577 224.194 60.3245C224.779 60.4176 225.293 60.4573 225.338 60.4124C225.591 60.1569 225.06 59.4691 224.453 59.2671C224.065 59.1382 223.748 58.9117 223.748 58.7642C223.748 58.441 226.196 57.2147 228.035 56.6169C228.765 56.3797 230.59 55.8655 232.09 55.4743C233.591 55.083 234.855 54.7256 234.9 54.6801C234.946 54.6344 234.791 54.3514 234.556 54.051C234.322 53.7506 234.18 53.5047 234.24 53.5047C234.3 53.5047 236.305 52.9977 238.695 52.3779C247.125 50.1923 251.906 49.5208 258.251 49.6309C259.917 49.66 260.566 49.5597 262.845 48.9205C264.305 48.5112 266.51 48.0557 267.745 47.9084C270.752 47.5501 276.562 47.6074 279.44 48.0235C282.966 48.5334 286.63 48.3923 286.63 47.7464C286.63 47.6477 286.148 47.4634 285.558 47.3366C284.969 47.2098 283.43 46.7909 282.139 46.4056C278.867 45.4298 276.913 45.062 275.001 45.062C273.386 45.062 273.36 45.0536 273.36 44.5472C273.36 44.0347 273.368 44.0324 275.274 44.0324C276.326 44.0324 278.278 44.2099 279.612 44.4266C283.992 45.1388 284.961 45.2679 285.955 45.271C286.495 45.2727 287.671 45.5043 288.57 45.7858C290.61 46.425 292.44 46.4785 292.743 45.9081C292.857 45.6938 293.365 45.3464 293.872 45.1359C294.942 44.6922 295.054 44.4443 294.184 44.4443C293.847 44.4443 293.572 44.3378 293.572 44.2075C293.572 44.0341 294.323 44.0063 296.379 44.1037C297.923 44.1766 301.805 44.2898 305.005 44.3549C308.375 44.4237 311.757 44.6041 313.041 44.7834C314.261 44.9539 316.236 45.0795 317.431 45.0624C319.252 45.0365 319.883 45.1184 321.338 45.5704C322.292 45.8668 323.693 46.2168 324.451 46.3482C325.553 46.5395 325.829 46.6614 325.829 46.9573C325.829 47.1607 325.701 47.3271 325.545 47.3271C325.389 47.3271 325.208 47.4661 325.143 47.636C325.011 47.9844 324.471 48.0544 324.366 47.7369C324.328 47.6224 323.792 47.5067 323.175 47.4795C322.149 47.4344 322.047 47.4698 321.987 47.8934C321.951 48.1483 321.824 48.3567 321.705 48.3567C321.378 48.3567 319.836 47.8938 319.602 47.7258C319.046 47.3251 316.2 45.8867 315.978 45.8937C315.838 45.8981 315.532 46.1991 315.299 46.563C315.065 46.9266 314.789 47.211 314.686 47.1947C312.786 46.8959 312.311 46.8865 312.398 47.1488C312.457 47.3288 313.537 47.6261 315.434 47.9852C317.995 48.47 321.016 48.8147 331.444 49.8121C335.045 50.1564 337.248 50.5664 339.026 51.2225C339.939 51.5598 342.043 52.1118 343.701 52.4491L346.716 53.0624L347.501 52.4259L348.286 51.7892L346.909 51.2007C346.151 50.877 345.187 50.5069 344.766 50.3784C344.242 50.2186 344 50.0251 344 49.7656C344 49.3009 343.857 49.2992 346.608 49.7988C349.082 50.2481 351.624 51.0761 352.269 51.643C352.493 51.8404 352.844 52.0616 353.049 52.1347C353.291 52.2212 353.397 52.4283 353.355 52.7317C353.302 53.1046 353.172 53.1872 352.694 53.1524C352.366 53.1285 352.045 53.0358 351.979 52.9464C351.914 52.8571 351.547 52.562 351.165 52.2906C350.479 51.8042 349.958 51.8487 349.772 52.4096C349.703 52.6176 352.983 53.9346 353.596 53.9449C353.764 53.9478 354.132 54.0324 354.412 54.1327C354.913 54.3121 355.54 54.4027 357.577 54.5911C358.138 54.643 358.347 54.6459 358.04 54.5973C357.682 54.5405 357.281 54.2205 356.917 53.7024C356.606 53.2586 356.237 52.8937 356.097 52.8912C355.956 52.889 355.841 52.7582 355.841 52.6011C355.841 52.3585 356.019 52.3567 357.015 52.5896C357.661 52.7405 358.419 52.9127 358.7 52.972C359.022 53.0399 359.426 53.4273 359.794 54.0197C360.499 55.1531 360.54 55.1747 365.029 56.7942C368.864 58.178 371.426 59.2881 372.005 59.8169C372.359 60.14 374.22 60.4048 374.212 60.1309C374.206 59.9549 370.139 57.9385 368.908 57.5014C368.403 57.3218 367.43 57.1012 366.746 57.0113C365.776 56.8836 365.288 56.6816 364.522 56.092C363.982 55.6767 363.411 55.3868 363.253 55.4479C362.98 55.5538 362.16 55.1323 361.609 54.6031C361.238 54.2462 361.281 53.6383 361.667 53.7876C361.839 53.8543 363.056 54.2419 364.372 54.6488C371.462 56.8424 371.672 56.9345 374.748 59.1913C376.774 60.6774 379.113 61.9895 380.248 62.2768L380.822 62.4222L380.377 61.7925C379.846 61.0398 379.782 60.4034 380.256 60.5868C380.433 60.6556 380.709 60.7118 380.868 60.7118C381.027 60.7118 381.158 60.8537 381.158 61.0271C381.158 61.2007 381.302 61.3986 381.48 61.4671C381.657 61.5357 381.884 61.8106 381.985 62.0783C382.138 62.4852 382.312 62.5651 383.041 62.5657C383.939 62.5661 386.577 63.215 388.916 64.0108C391.01 64.7235 395.058 66.7759 396.016 67.6109C396.94 68.4163 397.589 69.4448 397.385 69.7782C397.318 69.8882 397.4 69.9781 397.569 69.9781C397.737 69.9781 397.933 69.8842 398.003 69.7693C398.115 69.5859 397.767 69.1265 396.426 67.6908C395.621 66.8288 397.186 66.9612 399.155 67.9221C400.081 68.3734 400.937 68.7426 401.059 68.7426C402.006 68.7426 412.005 73.7059 413.592 74.9636C414.324 75.5437 415.039 76.0184 415.181 76.0184C415.323 76.0184 415.394 76.0917 415.34 76.181C415.285 76.2704 415.484 76.5045 415.782 76.7016C416.277 77.029 416.344 77.0313 416.563 76.7284C416.958 76.1835 418.997 76.9872 420.153 78.144C420.658 78.6496 421.584 79.3787 422.21 79.7644C423.25 80.4056 423.828 81.1266 423.828 81.7837C423.828 81.9239 424.103 82.2027 424.44 82.4035C425.152 82.8279 425.239 82.6125 424.624 81.9465C424.388 81.6912 424.235 81.4424 424.283 81.3934C424.397 81.2792 426.775 82.5834 430.792 84.9636C432.546 86.0023 435.413 87.4954 437.164 88.2818C442.149 90.5208 444.241 91.8813 449.042 96.005C449.491 96.3907 451.107 97.4423 452.633 98.3415C455.772 100.192 458.584 102.277 462.006 105.292C463.298 106.43 464.813 107.73 465.374 108.18C467.961 110.259 470.784 112.767 471.831 113.917C472.462 114.61 474.501 116.563 476.362 118.257C478.223 119.951 480.509 122.268 481.442 123.405C482.374 124.542 484.102 126.493 485.281 127.74C486.46 128.987 488.288 131.048 489.343 132.322C490.398 133.595 491.358 134.637 491.477 134.637C491.619 134.637 491.615 134.559 491.463 134.405C491.337 134.278 491.278 134.057 491.333 133.915C491.528 133.401 490.187 130.902 488.982 129.534C487.669 128.042 486.909 126.454 486.811 124.997C486.735 123.872 486.247 123.311 485.341 123.311C484.96 123.311 484.377 123.169 484.044 122.996C483.497 122.711 483.452 122.609 483.56 121.915C483.69 121.086 483.359 119.917 483.05 120.11C482.945 120.175 482.797 120.126 482.72 120.001C482.636 119.865 482.313 119.824 481.917 119.899C481.281 120.019 480.894 119.815 480.778 119.296C480.753 119.182 480.594 118.858 480.426 118.575C479.118 116.372 477.865 114.787 475.46 112.294C473.931 110.709 472.564 109.188 472.422 108.915C472.111 108.314 471.972 108.512 471.608 110.081C471.47 110.675 471.292 111.162 471.211 111.162C470.992 111.162 469.969 110.038 469.969 109.797C469.969 109.562 468.187 107.937 465.847 106.039C464.992 105.345 463.83 104.267 463.265 103.643C462.243 102.516 460.781 99.9072 460.781 99.2109C460.781 98.9391 460.419 98.7359 459.352 98.4091C458.566 98.1682 457.923 97.8908 457.923 97.7924C457.923 97.4468 456.808 96.3357 456.46 96.3357C456.031 96.3357 455.794 96.0023 456.092 95.8168C456.243 95.7227 456.236 95.5917 456.068 95.3883C455.908 95.1926 455.748 95.1616 455.589 95.2946C455.213 95.6092 453.706 95.7933 453.553 95.5431C453.479 95.4227 453.284 95.3759 453.12 95.4393C452.944 95.5077 452.766 95.3992 452.685 95.1731C452.456 94.5382 450.635 92.3156 449.446 91.2192C448.831 90.6524 448.327 90.0908 448.327 89.9714C448.327 89.8519 448.075 89.7035 447.766 89.6415C446.26 89.339 443.836 88.0432 443.836 87.5407C443.836 87.3947 443.609 87.2753 443.333 87.2753C442.853 87.2753 442.231 86.5597 442.487 86.3021C442.69 86.0968 441.914 84.9933 441.08 84.3022C440.63 83.9304 439.671 83.2401 438.947 82.7684C437.831 82.0408 437.604 81.9593 437.453 82.2307C437.329 82.455 437.433 82.7385 437.8 83.1785C438.088 83.5239 438.323 83.9903 438.323 84.2151C438.323 84.6021 438.267 84.5934 437.286 84.0547C436.716 83.7417 435.735 82.9251 435.105 82.2402C434.476 81.5553 433.845 81.0209 433.703 81.0529C433.561 81.0848 433.348 80.9285 433.23 80.7055C432.952 80.1826 429.708 77.9943 427.705 76.9781C424.791 75.5005 422.927 75.2258 422.096 76.1514C421.742 76.5467 421.729 76.5467 420.945 76.1431C420.268 75.7947 420.153 75.6372 420.153 75.0602C420.153 74.3152 419.839 73.8669 419.429 74.0255C419.283 74.0821 418.973 74.0253 418.74 73.8992C418.362 73.6954 418.315 73.7275 418.315 74.1923C418.315 74.4793 418.286 74.7143 418.25 74.7143C418.215 74.7143 417.726 74.5765 417.164 74.4083C416.467 74.1997 416.054 73.9371 415.867 73.5846C415.716 73.2998 415.516 73.0669 415.423 73.0669C415.329 73.0669 415.253 72.9757 415.253 72.8641C415.253 72.7525 415.716 72.8452 416.281 73.07C417.468 73.5418 418.55 73.6334 418.148 73.228C418.012 73.09 417.694 72.9681 417.443 72.957C417.191 72.9461 416.534 72.6701 415.982 72.3439C415.43 72.0178 414.612 71.7217 414.164 71.686C413.372 71.6228 413.359 71.6325 413.701 72.0147C414.4 72.7929 413.608 72.6965 412.539 71.8728C411.212 70.8512 410.255 70.3645 407.846 69.4848C406.8 69.103 405.369 68.498 404.667 68.1405C403.965 67.7829 402.435 67.1715 401.268 66.7817C399.838 66.3042 398.948 65.8785 398.541 65.4766C398.158 65.0997 397.534 64.7865 396.846 64.6261C396.246 64.4865 395.663 64.2571 395.55 64.1165C395.438 63.9756 395.139 63.7944 394.887 63.7137C394.635 63.633 394.428 63.4343 394.428 63.272C394.428 62.8713 394.42 62.869 396.264 63.7874C397.159 64.2332 397.929 64.5343 397.975 64.4567C398.021 64.379 397.173 63.765 396.09 63.0924C395.008 62.4197 393.216 61.1414 392.108 60.2516C390.161 58.6874 388.209 57.5376 386.619 57.0179C386.198 56.8801 385.853 56.6839 385.853 56.5817C385.853 56.2632 384.268 55.5589 383.875 55.7029C383.672 55.7772 383.263 56.124 382.967 56.4732C382.431 57.1035 382.413 57.1083 380.4 57.1083C378.415 57.1083 378.346 57.092 377.136 56.3392C374.839 54.9101 370.55 53.2988 369.041 53.2988C368.715 53.2988 366.576 52.389 364.24 51.2565C359.668 49.04 355.893 47.6599 352.077 46.8107C350.737 46.5123 349.398 46.1421 349.102 45.9878C348.317 45.5783 345.798 44.9689 341.856 44.2351C339.947 43.8794 337.926 43.4608 337.365 43.3047C336.803 43.1484 335.573 42.9178 334.631 42.792C332.646 42.5272 330.884 41.9177 330.312 41.2978C329.981 40.9402 329.814 40.8994 329.351 41.0635C328.651 41.3116 328.626 41.6434 329.3 41.7296C330.186 41.8427 331.342 42.1893 331.342 42.3416C331.341 42.4222 330.834 42.6964 330.214 42.9514C328.912 43.4863 327.418 43.5349 322.461 43.2038C316.699 42.819 312.483 42.11 311.925 41.4323C311.534 40.9577 310.992 41.1086 310.721 41.7673C310.469 42.3816 310.044 42.5725 309.803 42.1792C309.733 42.0659 309.429 41.9667 309.127 41.9588C308.825 41.9508 308.394 41.8695 308.169 41.7778C307.814 41.6329 307.875 41.5645 308.635 41.2527C309.115 41.0555 309.601 40.72 309.714 40.5071C309.896 40.163 309.841 40.12 309.213 40.12C308.825 40.12 307.743 39.938 306.807 39.7154C305.426 39.3865 301.551 38.785 299.941 38.6493C299.75 38.6333 299.962 38.5538 300.411 38.4726C301.64 38.2509 305.188 38.254 308.169 38.4796ZM308.476 46.1795C308.476 46.341 308.315 46.5156 308.118 46.5675C307.922 46.6192 308.044 46.6723 308.39 46.6855C308.737 46.6987 309.082 46.7718 309.158 46.8482C309.353 47.0454 310.313 47.0642 310.313 46.8706C310.313 46.7819 310.175 46.7094 310.007 46.7094C309.837 46.7094 309.701 46.5263 309.701 46.2975C309.701 45.9771 309.564 45.8857 309.088 45.8857C308.694 45.8857 308.476 45.9903 308.476 46.1795ZM385.037 64.3605C388.308 65.9384 388.712 66.0921 388.712 65.7599C388.712 65.1949 387.32 64.3988 385.45 63.8939C384.42 63.6161 383.47 63.397 383.338 63.4069C383.205 63.4168 383.97 63.8459 385.037 64.3605ZM421.582 65.5509C421.863 65.7128 422.001 65.8452 421.888 65.8452C421.776 65.8452 421.454 65.7128 421.174 65.5509C420.893 65.3891 420.755 65.2567 420.867 65.2567C420.98 65.2567 421.301 65.3891 421.582 65.5509ZM422.71 66.2319C422.648 66.2953 422.483 66.2321 422.344 66.0912C422.144 65.8878 422.168 65.8643 422.459 65.9759C422.66 66.0533 422.773 66.1685 422.71 66.2319ZM423.527 66.6437C423.464 66.7071 423.299 66.6439 423.161 66.5031C422.961 66.2996 422.984 66.2761 423.275 66.3878C423.476 66.4652 423.59 66.5803 423.527 66.6437ZM425.461 67.6185C425.461 67.6752 425.094 67.5323 424.644 67.3012C424.195 67.0702 423.828 66.8346 423.828 66.778C423.828 66.7213 424.195 66.8643 424.644 67.0953C425.094 67.3263 425.461 67.5619 425.461 67.6185ZM428.524 69.2679C428.524 69.3246 428.248 69.2272 427.911 69.0515C427.574 68.8759 427.299 68.6858 427.299 68.6292C427.299 68.5726 427.574 68.67 427.911 68.8456C428.248 69.0212 428.524 69.2113 428.524 69.2679ZM197.002 68.9486C196.819 69.0684 196.793 69.1493 196.939 69.1514C197.073 69.153 197.239 69.0618 197.309 68.9486C197.465 68.6928 197.395 68.6928 197.002 68.9486ZM429.544 69.8896C429.544 69.9462 429.361 69.8935 429.136 69.7722C428.912 69.6509 428.728 69.5056 428.728 69.4489C428.728 69.3923 428.912 69.445 429.136 69.5663C429.361 69.6876 429.544 69.833 429.544 69.8896ZM185.41 77.1692C185.442 77.4435 185.582 77.7061 185.722 77.7526C186.07 77.8679 186.044 77.5543 185.665 77.0702C185.363 76.6831 185.355 76.6864 185.41 77.1692ZM434.546 77.7417C434.659 77.8586 435.21 78.2134 435.771 78.5304C436.333 78.8471 436.7 79.0108 436.588 78.894C436.476 78.777 435.925 78.4222 435.363 78.1053C434.802 77.7886 434.434 77.6249 434.546 77.7417ZM180.057 79.4401C179.888 79.5334 179.337 79.6757 178.832 79.7558C177.835 79.9143 176.178 80.773 176.178 81.1317C176.178 81.2829 176.259 81.2878 176.433 81.1468C176.573 81.0327 177.465 80.7429 178.414 80.503C179.363 80.2632 180.224 79.9825 180.326 79.8795C180.614 79.5884 180.406 79.2465 180.057 79.4401ZM437.303 79.3369C437.303 79.3936 437.578 79.5836 437.915 79.7593C438.252 79.9349 438.528 80.0323 438.528 79.9757C438.528 79.9191 438.252 79.729 437.915 79.5534C437.578 79.3777 437.303 79.2803 437.303 79.3369ZM426.584 83.3628C426.921 83.5879 427.288 83.7722 427.401 83.7726C427.513 83.7728 427.304 83.5881 426.936 83.362C426.07 82.8291 425.786 82.8297 426.584 83.3628ZM170.209 83.9874C168.946 84.2018 167.195 84.7923 167.195 85.0034C167.195 85.288 168.883 85.4391 169.904 85.2462C170.818 85.0732 172.021 84.1814 171.733 83.8904C171.602 83.7584 171.53 83.7629 170.209 83.9874ZM430.361 85.5962C430.361 86.0768 434.62 88.9156 435.348 88.9202C436.278 88.9259 434.651 87.7689 430.514 85.4824C430.43 85.4358 430.361 85.4871 430.361 85.5962ZM87.7167 88.2472C87.1794 89.1014 86.771 89.8318 86.8094 89.8707C86.9235 89.9856 88.3825 87.9332 88.6036 87.3467C88.9568 86.4098 88.7241 86.6462 87.7167 88.2472ZM446.086 90.472C446.507 90.9833 446.11 91.1015 445.622 90.6099C445.262 90.2469 445.238 90.1581 445.501 90.1581C445.68 90.1581 445.944 90.2994 446.086 90.472ZM461.19 97.2067C461.488 97.5131 465.335 100.697 467.062 102.067C467.538 102.445 467.927 102.708 467.927 102.651C467.927 102.538 462.054 97.6752 461.339 97.1969C460.931 96.9242 460.915 96.9252 461.19 97.2067ZM465.069 102.399C465.069 102.477 465.161 102.714 465.274 102.926C465.596 103.533 465.151 103.632 464.322 103.139C463.538 102.672 463.213 102.715 463.636 103.229C463.778 103.402 463.814 103.55 463.716 103.558C463.259 103.599 465.052 104.131 465.692 104.145C466.746 104.168 467.008 103.803 466.33 103.255C465.257 102.387 465.069 102.259 465.069 102.399ZM469.161 103.883C469.325 104.127 469.877 104.917 470.388 105.637C470.899 106.358 471.391 107.131 471.481 107.356C471.641 107.753 471.651 107.752 471.855 107.309C472.037 106.916 471.926 106.693 471.038 105.662C469.815 104.243 468.686 103.173 469.161 103.883ZM135.549 110.532C135.549 110.639 135.641 110.783 135.753 110.853C135.866 110.923 135.958 110.836 135.958 110.659C135.958 110.483 135.866 110.338 135.753 110.338C135.641 110.338 135.549 110.425 135.549 110.532ZM485.893 130.616C485.893 130.669 486.192 130.859 486.557 131.038L487.221 131.362L486.738 130.94C486.287 130.545 485.893 130.394 485.893 130.616ZM491.913 131.009C491.685 131.36 491.628 131.681 491.736 132.001C491.824 132.261 491.901 132.567 491.907 132.68C491.913 132.794 492.101 132.886 492.326 132.886C492.55 132.886 492.848 132.961 492.988 133.053C493.132 133.147 493.243 133.13 493.243 133.013C493.243 132.9 493.151 132.75 493.039 132.68C492.927 132.61 492.835 132.199 492.835 131.767C492.835 130.694 492.367 130.31 491.913 131.009ZM487.529 132.625C487.524 132.931 488.976 135.048 489.191 135.048C489.35 135.048 489.349 134.969 489.187 134.772C489.062 134.62 489.01 134.445 489.072 134.382C489.134 134.32 488.812 133.865 488.358 133.372C487.904 132.878 487.531 132.542 487.529 132.625ZM497.327 146.113C497.327 146.831 502.714 155.217 502.994 154.935C503.053 154.875 503.013 154.708 502.905 154.564C502.796 154.42 502.399 153.56 502.022 152.654C501.564 151.555 500.76 150.253 499.606 148.742C497.547 146.047 497.327 145.793 497.327 146.113ZM503.258 156.001C503.644 156.425 504.043 156.865 504.144 156.979C504.457 157.329 504.025 156.613 503.493 155.898C503.219 155.529 502.896 155.228 502.775 155.228C502.654 155.228 502.871 155.576 503.258 156.001ZM504.598 158.883C504.846 159.941 505.28 160.818 505.489 160.688C505.813 160.486 505.738 159.99 505.251 159.117C504.732 158.186 504.406 158.069 504.598 158.883ZM561.836 163.98C561.836 164.093 561.747 164.047 561.638 163.877C561.529 163.707 561.44 163.475 561.44 163.362C561.44 163.249 561.529 163.295 561.638 163.465C561.747 163.635 561.836 163.867 561.836 163.98ZM520.933 174.49C520.736 175.007 520.794 175.141 521.034 174.724C521.154 174.517 521.208 174.304 521.156 174.251C521.103 174.198 521.003 174.306 520.933 174.49ZM518.878 176.386C518.92 176.811 518.996 177.691 519.048 178.342C519.147 179.579 520.31 182.016 525.414 191.676C527.819 196.23 531.776 204.912 533.896 210.29C534.793 212.567 536.123 215.609 536.85 217.051C539.38 222.067 542.117 229.877 542.464 233.065C542.866 236.754 542.825 236.654 543.61 235.91C543.934 235.603 544.152 235.527 544.294 235.67C544.482 235.86 544.875 238.734 545.206 242.345C545.323 243.627 545.385 243.757 546.412 244.862L547.495 246.026L547.468 244.917C547.453 244.307 547.505 243.847 547.582 243.896C547.66 243.944 547.456 242.987 547.128 241.768C546.8 240.549 546.53 239.459 546.528 239.346C546.526 239.233 546.427 239.279 546.309 239.449C546.14 239.693 546.121 239.665 546.219 239.312C546.382 238.722 546.136 237.768 545.864 237.938C545.74 238.015 545.711 237.972 545.794 237.837C546.009 237.486 544.661 232.791 544.439 233.113C544.323 233.28 544.305 233.204 544.389 232.902C544.578 232.227 544.295 230.662 544.051 231.031C543.926 231.22 543.907 231.125 543.994 230.747C544.171 229.98 543.92 228.689 543.63 228.87C543.491 228.957 543.462 228.916 543.555 228.766C543.637 228.631 543.641 228.137 543.562 227.669C543.451 227.002 543.379 226.892 543.231 227.16C543.111 227.375 543.122 227.65 543.259 227.91C543.445 228.26 543.424 228.3 543.115 228.182C542.464 227.933 542.236 227.544 541.848 226.021C541.638 225.196 541.09 223.568 540.629 222.405C539.947 220.68 539.793 220.041 539.793 218.934C539.793 217.687 539.672 216.963 538.867 213.397C538.713 212.716 538.152 211.233 537.621 210.102C536.666 208.07 536.653 208.054 536.483 208.716C536.312 209.38 535.709 209.666 535.709 209.084C535.709 208.918 535.504 208.59 535.253 208.354C534.937 208.058 534.869 207.879 535.033 207.777C535.164 207.696 535.3 207.362 535.337 207.036C535.396 206.51 535.337 206.44 534.816 206.413C533.688 206.356 532.95 205.001 531.272 199.913C530.656 198.044 530.074 196.366 529.979 196.183C529.883 196.001 529.362 195.66 528.821 195.425C527.655 194.919 527.224 194.118 527.08 192.191C527.029 191.511 526.918 190.793 526.835 190.595C526.533 189.881 527.068 190.252 527.427 191.007L527.796 191.779L527.995 191.264C528.232 190.65 528.069 188.165 527.752 187.568C527.571 187.225 527.328 187.145 526.464 187.145C525.767 187.144 525.172 187.005 524.744 186.741C524.004 186.287 522.947 184.806 523.138 184.493C523.207 184.381 522.481 182.749 521.524 180.867C520.567 178.986 519.785 177.214 519.785 176.929C519.785 176.261 519.439 175.614 519.082 175.614C518.882 175.614 518.824 175.833 518.878 176.386ZM93.529 179.762C92.565 181.05 92.5229 181.174 93.0517 181.174C93.5054 181.174 93.9461 180.685 94.2953 179.795C94.7587 178.612 94.401 178.597 93.529 179.762ZM87.114 186.905C87.4423 187.115 87.0783 188.308 86.5197 188.853C86.3119 189.055 86.1418 189.342 86.1418 189.49C86.1418 189.638 85.9425 189.935 85.6988 190.151C85.2851 190.518 85.2647 190.519 85.3911 190.17C85.4654 189.965 85.6659 189.19 85.8366 188.448C86.0073 187.705 86.1971 187.016 86.2584 186.916C86.3964 186.691 86.7723 186.686 87.114 186.905ZM90.8114 186.792C90.7971 186.817 90.7639 187.045 90.7373 187.3C90.6783 187.867 90.8617 187.896 91.1871 187.37C91.3833 187.053 91.3729 186.954 91.1342 186.862C90.9711 186.799 90.8259 186.767 90.8114 186.792ZM89.6126 188.716C88.8878 189.087 86.346 191.526 86.346 191.85C86.346 192.434 88.9215 190.565 89.7218 189.4C90.3608 188.47 90.3406 188.343 89.6126 188.716ZM17.5828 200.633C17.5868 200.973 17.6326 201.087 17.6844 200.887C17.7363 200.686 17.7328 200.408 17.6769 200.269C17.6209 200.13 17.5787 200.294 17.5828 200.633ZM543.257 207.635C543.257 207.748 543.168 207.701 543.059 207.532C542.95 207.362 542.861 207.13 542.861 207.017C542.861 206.904 542.95 206.95 543.059 207.12C543.168 207.29 543.257 207.521 543.257 207.635ZM543.759 208.973C543.854 209.331 543.838 209.394 543.706 209.179C543.602 209.009 543.455 208.638 543.38 208.355C543.285 207.998 543.302 207.935 543.433 208.149C543.537 208.319 543.684 208.69 543.759 208.973ZM544.278 210.312C544.278 210.425 544.189 210.378 544.08 210.209C543.971 210.039 543.882 209.807 543.882 209.694C543.882 209.58 543.971 209.627 544.08 209.797C544.189 209.967 544.278 210.198 544.278 210.312ZM544.675 211.547C544.681 211.66 544.597 211.614 544.488 211.444C544.38 211.274 544.295 210.996 544.302 210.826C544.314 210.5 544.654 211.157 544.675 211.547ZM545.632 214.683C545.538 214.778 544.686 212.279 544.708 211.97C544.716 211.851 544.945 212.395 545.217 213.179C545.488 213.963 545.675 214.64 545.632 214.683ZM546.301 216.592C546.298 216.762 546.171 216.577 546.02 216.18C545.661 215.24 545.666 214.87 546.027 215.665C546.181 216.005 546.305 216.422 546.301 216.592ZM546.717 217.828C546.709 218.031 546.646 217.996 546.53 217.725C546.289 217.159 546.289 216.833 546.53 217.21C546.639 217.38 546.723 217.658 546.717 217.828ZM547.125 219.063C547.118 219.267 547.054 219.232 546.938 218.96C546.697 218.394 546.697 218.069 546.938 218.445C547.047 218.615 547.131 218.893 547.125 219.063ZM542.058 223.181C542.05 223.238 542.317 224.072 542.651 225.035C542.985 225.997 543.259 226.576 543.261 226.322C543.262 226.048 543.389 225.858 543.57 225.858C543.738 225.858 543.876 225.762 543.876 225.645C543.876 225.266 543.225 224.417 542.934 224.417C542.779 224.417 542.521 224.116 542.362 223.748C542.202 223.38 542.065 223.125 542.058 223.181ZM12.6592 224.949C12.669 225.189 12.7173 225.238 12.7825 225.073C12.8415 224.925 12.8341 224.747 12.7663 224.679C12.6986 224.61 12.6504 224.732 12.6592 224.949ZM546.122 231.006C546.122 231.12 546.219 231.212 546.338 231.212C546.457 231.212 546.489 231.319 546.408 231.45C546.316 231.601 546.353 231.632 546.508 231.534C546.696 231.417 546.698 231.313 546.515 231.091C546.233 230.748 546.122 230.724 546.122 231.006ZM550.653 234.404C550.657 234.744 550.703 234.858 550.755 234.657C550.807 234.457 550.803 234.179 550.747 234.04C550.691 233.9 550.649 234.064 550.653 234.404ZM542.99 235.176C542.934 235.318 542.887 235.202 542.887 234.919C542.887 234.636 542.934 234.52 542.99 234.661C543.047 234.803 543.047 235.035 542.99 235.176ZM550.85 236.154C550.85 236.437 550.896 236.553 550.953 236.412C551.009 236.27 551.009 236.039 550.953 235.897C550.896 235.755 550.85 235.871 550.85 236.154ZM547.239 236.824C547.187 236.965 547.23 237.359 547.335 237.699C547.514 238.281 547.522 238.266 547.487 237.441C547.447 236.524 547.396 236.397 547.239 236.824ZM548.179 237.304C548.189 237.544 548.238 237.593 548.303 237.428C548.362 237.28 548.354 237.102 548.287 237.034C548.219 236.965 548.171 237.087 548.179 237.304ZM551.038 237.922C551.048 238.162 551.096 238.21 551.161 238.046C551.22 237.898 551.213 237.72 551.145 237.652C551.077 237.583 551.029 237.705 551.038 237.922ZM551.242 238.951C551.252 239.191 551.3 239.24 551.365 239.076C551.424 238.927 551.417 238.749 551.349 238.681C551.281 238.613 551.233 238.734 551.242 238.951ZM545.24 239.282C545.175 239.446 545.127 239.397 545.117 239.157C545.108 238.94 545.156 238.819 545.224 238.887C545.292 238.955 545.299 239.133 545.24 239.282ZM0.00103256 239.775C0.0108324 240.015 0.0592191 240.064 0.124347 239.9C0.18335 239.751 0.176 239.573 0.108218 239.505C0.0404361 239.436 -0.00774646 239.558 0.00103256 239.775ZM549.404 241.422C549.414 241.662 549.463 241.711 549.528 241.547C549.587 241.398 549.579 241.22 549.512 241.152C549.444 241.084 549.396 241.205 549.404 241.422ZM560.757 248.96C560.692 249.124 560.643 249.075 560.633 248.835C560.625 248.618 560.673 248.497 560.741 248.565C560.808 248.634 560.816 248.811 560.757 248.96ZM560.969 251.44C560.924 251.81 560.886 251.557 560.885 250.877C560.883 250.198 560.921 249.895 560.967 250.205C561.014 250.514 561.015 251.07 560.969 251.44ZM562.39 251.225C562.325 251.389 562.276 251.34 562.267 251.1C562.258 250.883 562.306 250.762 562.374 250.83C562.442 250.899 562.449 251.076 562.39 251.225ZM552.549 252.473C552.481 252.841 552.517 253.374 552.629 253.657C552.802 254.093 552.835 253.99 552.846 252.988C552.86 251.67 552.738 251.457 552.549 252.473ZM563.801 256.798C563.755 256.996 563.793 257.112 563.884 257.055C564.253 256.825 566.947 269.861 567.943 276.699C568.782 282.448 568.396 283.001 567.354 277.544C566.985 275.612 566.383 273.265 566.195 273.029C566.157 272.98 565.996 273.119 565.838 273.337C565.68 273.555 565.52 273.688 565.483 273.631C565.445 273.575 565.185 273.079 564.905 272.53C564.624 271.981 564.122 271.299 563.789 271.013L563.184 270.495L563.026 271.085C562.933 271.436 562.992 272.331 563.172 273.294C563.555 275.334 563.554 275.344 563.118 275.098C562.804 274.92 562.758 274.517 562.736 271.778L562.711 268.659L563.312 269.395C564.152 270.423 564.357 270.312 563.879 269.088C563.654 268.514 563.553 268.096 563.654 268.159C563.755 268.222 563.893 268.065 563.96 267.812C564.152 267.089 564.109 266.012 563.888 266.012C563.702 266.012 563.611 266.273 563.418 267.351C563.363 267.654 563.271 267.545 563.07 266.939C562.672 265.745 562.58 259.909 562.957 259.764C563.27 259.643 563.09 258.517 562.551 257.216C562.19 256.344 562.169 256.058 562.513 256.681C562.717 257.053 562.756 256.691 562.735 254.622L562.71 252.113L563.297 254.275C563.62 255.464 563.846 256.599 563.801 256.798ZM560.757 255.343C560.692 255.508 560.643 255.459 560.633 255.219C560.625 255.002 560.673 254.88 560.741 254.949C560.808 255.017 560.816 255.195 560.757 255.343ZM562.244 256.025C562.244 256.139 562.155 256.092 562.046 255.922C561.938 255.753 561.849 255.521 561.849 255.408C561.849 255.294 561.938 255.341 562.046 255.511C562.155 255.68 562.244 255.912 562.244 256.025ZM560.957 256.386C560.9 256.527 560.854 256.411 560.854 256.128C560.854 255.845 560.9 255.729 560.957 255.871C561.013 256.013 561.013 256.244 560.957 256.386ZM561.165 257.608C561.1 257.773 561.052 257.724 561.042 257.484C561.033 257.267 561.081 257.145 561.149 257.214C561.217 257.282 561.224 257.46 561.165 257.608ZM561.369 258.432C561.304 258.596 561.256 258.547 561.246 258.308C561.237 258.091 561.285 257.969 561.353 258.037C561.421 258.106 561.428 258.283 561.369 258.432ZM560.757 261.315C560.692 261.479 560.643 261.43 560.633 261.19C560.625 260.973 560.673 260.852 560.741 260.92C560.808 260.989 560.816 261.166 560.757 261.315ZM552.687 262.718C552.687 263.001 552.733 263.117 552.79 262.975C552.847 262.834 552.847 262.602 552.79 262.46C552.733 262.319 552.687 262.435 552.687 262.718ZM562.186 263.374C562.121 263.538 562.072 263.49 562.063 263.25C562.054 263.033 562.102 262.911 562.17 262.979C562.237 263.048 562.245 263.226 562.186 263.374ZM561.369 263.786C561.304 263.95 561.256 263.901 561.246 263.661C561.237 263.444 561.285 263.323 561.353 263.391C561.421 263.46 561.428 263.637 561.369 263.786ZM561.977 265.652C561.921 265.794 561.874 265.678 561.874 265.395C561.874 265.112 561.921 264.996 561.977 265.137C562.034 265.279 562.034 265.511 561.977 265.652ZM560.757 266.257C560.692 266.421 560.643 266.372 560.633 266.132C560.625 265.915 560.673 265.794 560.741 265.862C560.808 265.931 560.816 266.108 560.757 266.257ZM562.186 266.669C562.121 266.833 562.072 266.784 562.063 266.544C562.054 266.327 562.102 266.206 562.17 266.274C562.237 266.343 562.245 266.52 562.186 266.669ZM560.963 267.604C560.911 267.805 560.865 267.691 560.861 267.351C560.857 267.011 560.899 266.847 560.955 266.987C561.011 267.126 561.015 267.404 560.963 267.604ZM561.165 268.522C561.1 268.686 561.052 268.637 561.042 268.398C561.033 268.181 561.081 268.059 561.149 268.127C561.217 268.196 561.224 268.373 561.165 268.522ZM64.9088 274.933C64.9088 275.082 64.582 275.59 64.1826 276.06L63.4562 276.916L63.8764 277.874C64.1073 278.401 64.2963 279.005 64.2963 279.217C64.2963 279.429 64.4119 279.603 64.5532 279.603C64.8886 279.603 65.5993 275.973 65.4117 275.219C65.2698 274.648 64.9088 274.443 64.9088 274.933ZM562.182 275.536C562.125 275.678 562.079 275.562 562.079 275.279C562.079 274.996 562.125 274.88 562.182 275.021C562.238 275.163 562.238 275.395 562.182 275.536ZM562.386 277.389C562.329 277.531 562.283 277.415 562.283 277.132C562.283 276.849 562.329 276.733 562.386 276.875C562.442 277.016 562.442 277.248 562.386 277.389ZM562.595 279.14C562.544 279.338 562.502 279.176 562.502 278.779C562.502 278.383 562.544 278.221 562.595 278.419C562.647 278.617 562.647 278.941 562.595 279.14ZM559.328 280.054C559.262 280.218 559.214 280.169 559.204 279.929C559.195 279.712 559.244 279.59 559.311 279.659C559.379 279.727 559.387 279.905 559.328 280.054ZM562.807 281.71C562.761 282.08 562.723 281.827 562.722 281.147C562.721 280.468 562.758 280.165 562.805 280.475C562.851 280.784 562.852 281.34 562.807 281.71ZM568.972 283.567C569.118 284.162 569.457 285.053 569.725 285.549C570.129 286.295 570.213 286.746 570.213 288.164C570.213 289.107 570.399 290.85 570.626 292.038C571.279 295.451 571.641 299.663 571.777 305.446C571.884 309.949 571.849 311.128 571.558 312.866C571.282 314.515 571.258 315.118 571.44 315.852C571.799 317.298 571.935 325.875 571.655 329.366C571.009 337.416 570.802 339.346 570.091 343.953C568.912 351.596 568.085 355.891 566.454 362.843C565.316 367.698 564.882 369.187 564.647 369.041C564.521 368.963 564.494 369.007 564.582 369.151C564.798 369.504 564.508 370.651 564.244 370.486C564.112 370.404 564.085 370.447 564.174 370.592C564.371 370.915 564.106 372.096 563.87 371.949C563.768 371.885 563.734 371.963 563.794 372.122C563.855 372.281 563.633 373.328 563.301 374.449L562.698 376.488L562.69 371.357L562.681 366.227L563.589 365.325C564.447 364.472 564.701 364.03 564.333 364.03C564.243 364.03 564.207 363.705 564.253 363.309C564.318 362.749 564.264 362.588 564.008 362.588C563.827 362.588 563.68 362.723 563.68 362.888C563.68 363.193 562.68 364.325 562.537 364.182C562.494 364.138 562.775 362.997 563.162 361.646C563.548 360.296 563.778 359.16 563.672 359.122C563.556 359.082 563.569 358.885 563.703 358.631C563.883 358.292 563.963 358.264 564.107 358.493C564.248 358.718 564.394 358.647 564.793 358.161C565.886 356.83 567.638 352.91 567.14 352.91C567.041 352.91 567.012 352.771 567.077 352.601C567.271 352.091 566.679 352.246 565.983 352.888C565.627 353.215 565.281 353.426 565.212 353.357C565.143 353.288 565.148 353.391 565.222 353.585C565.308 353.813 565.258 353.94 565.08 353.94C564.92 353.94 564.803 353.721 564.803 353.425C564.803 353.142 564.908 352.91 565.036 352.91C565.164 352.91 565.324 352.689 565.391 352.418C565.578 351.668 566.126 347.333 566.128 346.593C566.129 346.233 566.253 345.814 566.403 345.662C566.554 345.511 566.936 344.804 567.252 344.093C567.569 343.382 567.997 342.708 568.204 342.597C568.513 342.43 568.58 342.142 568.58 340.972V339.551L567.916 339.487C567.272 339.424 567.251 339.391 567.192 338.376C567.114 337.022 567.665 333.31 568.073 332.443C568.327 331.902 568.357 331.431 568.226 330.036C568.136 329.083 568.124 327.422 568.199 326.347C568.275 325.271 568.347 323.417 568.36 322.228C568.386 319.746 568.65 318.326 569.81 314.439C570.266 312.91 570.56 311.605 570.464 311.538C570.295 311.422 569.157 308.622 568.886 307.659C568.804 307.366 568.872 307.077 569.071 306.877C569.244 306.703 569.572 305.952 569.799 305.209C570.43 303.148 570.313 302.337 569.477 302.975C568.856 303.449 568.234 303.358 568.088 302.773C567.93 302.135 568.162 300.576 568.394 300.721C568.488 300.78 568.816 300.431 569.122 299.945C569.626 299.146 569.674 298.905 569.625 297.415C569.596 296.509 569.38 294.944 569.146 293.938C568.813 292.505 568.772 292.025 568.956 291.727C569.086 291.517 569.192 291.165 569.192 290.944C569.192 290.722 569.284 290.484 569.396 290.414C569.779 290.175 569.601 289.06 568.768 286.477C568.31 285.057 567.987 283.759 568.051 283.592C568.116 283.421 568.078 283.343 567.965 283.414C567.854 283.483 567.763 283.442 567.763 283.322C567.763 283.202 567.901 283.104 568.069 283.104C568.238 283.104 568.375 282.965 568.375 282.795C568.375 282.104 568.723 282.554 568.972 283.567ZM562.39 287.055C562.325 287.219 562.276 287.17 562.267 286.93C562.258 286.713 562.306 286.592 562.374 286.66C562.442 286.728 562.449 286.906 562.39 287.055ZM562.596 288.608C562.544 288.808 562.499 288.694 562.495 288.355C562.49 288.015 562.533 287.851 562.589 287.99C562.645 288.13 562.648 288.408 562.596 288.608ZM597.847 290.282C598.021 291.997 598.068 292.128 598.632 292.464C598.962 292.661 599.279 292.774 599.337 292.716C599.499 292.552 598.644 289.683 598.32 289.307C598.162 289.123 598.074 288.857 598.125 288.715C598.176 288.573 598.092 288.458 597.94 288.458C597.713 288.458 597.696 288.79 597.847 290.282ZM563.018 301.07C562.963 305.128 563.003 306.167 563.212 306.167C563.357 306.167 563.476 306.074 563.476 305.961C563.476 305.709 564.225 304.931 564.468 304.931C564.705 304.931 564.974 314.133 564.794 316.06C564.715 316.904 564.245 319.252 563.75 321.278C563.255 323.304 562.887 324.998 562.931 325.042C562.975 325.087 563.571 324.879 564.255 324.58C565.481 324.043 565.501 324.022 565.615 323.08C566.101 319.096 566.594 318.713 566.449 322.434C566.285 326.635 565.667 334.162 565.495 334.055C565.416 334.005 565.4 334.155 565.461 334.387C565.629 335.037 565.149 339.553 564.368 344.673C563.695 349.079 563.337 350.92 563.587 348.689C563.65 348.122 563.834 346.501 563.995 345.085C564.156 343.669 564.289 341.487 564.29 340.236C564.291 338.984 564.379 337.872 564.484 337.765C564.712 337.533 565.105 335.225 565.107 334.108C565.108 333.676 565.178 333.366 565.262 333.418C565.346 333.469 565.415 332.069 565.415 330.307C565.415 328.109 565.343 327.078 565.185 327.024C565.04 326.976 564.904 327.392 564.82 328.139C564.55 330.539 563.137 340.269 562.881 341.482C562.784 341.946 562.72 330.784 562.735 315.845C562.751 299.692 562.824 290.668 562.924 292.679C563.014 294.491 563.056 298.267 563.018 301.07ZM567.372 291.156C567.264 291.427 567.17 291.541 567.163 291.409C567.146 291.087 567.384 290.478 567.486 290.581C567.531 290.626 567.48 290.885 567.372 291.156ZM561.167 294.992C561.115 295.192 561.069 295.078 561.065 294.738C561.061 294.398 561.104 294.234 561.159 294.374C561.215 294.513 561.219 294.791 561.167 294.992ZM561.578 297.981C561.529 298.236 561.489 298.028 561.489 297.518C561.489 297.008 561.529 296.8 561.578 297.055C561.627 297.309 561.627 297.727 561.578 297.981ZM561.369 298.998C561.304 299.162 561.256 299.113 561.246 298.874C561.237 298.656 561.285 298.535 561.353 298.603C561.421 298.672 561.428 298.849 561.369 298.998ZM560.144 301.469C560.079 301.633 560.031 301.584 560.021 301.345C560.012 301.127 560.06 301.006 560.128 301.074C560.196 301.143 560.203 301.32 560.144 301.469ZM560.35 303.64C560.299 303.84 560.253 303.726 560.249 303.387C560.245 303.047 560.287 302.883 560.343 303.022C560.399 303.162 560.402 303.44 560.35 303.64ZM9.89887 311.265C10.0481 311.915 10.2259 312.713 10.2937 313.038C10.3615 313.362 10.4689 313.576 10.5322 313.512C10.6843 313.359 10.0112 310.323 9.79515 310.188C9.70287 310.131 9.74962 310.616 9.89887 311.265ZM560.14 311.16C560.083 311.302 560.037 311.186 560.037 310.903C560.037 310.619 560.083 310.504 560.14 310.645C560.197 310.787 560.197 311.019 560.14 311.16ZM564.536 311.623C564.54 311.963 564.586 312.077 564.638 311.877C564.69 311.676 564.686 311.398 564.63 311.259C564.574 311.12 564.532 311.284 564.536 311.623ZM559.738 314.142C559.686 314.342 559.64 314.228 559.636 313.888C559.632 313.549 559.674 313.385 559.73 313.524C559.786 313.664 559.79 313.942 559.738 314.142ZM564.536 314.712C564.54 315.052 564.586 315.166 564.638 314.966C564.69 314.765 564.686 314.487 564.63 314.348C564.574 314.208 564.532 314.372 564.536 314.712ZM9.80659 315.948C9.78801 317.381 10.3484 324.101 10.4993 324.253C10.8348 324.591 10.395 316.836 10.005 315.536C9.83558 314.971 9.81863 315.006 9.80659 315.948ZM569.447 318.361C568.98 318.589 568.864 318.832 569.142 319.005C569.301 319.105 570.213 318.446 570.213 318.231C570.213 318.062 569.983 318.101 569.447 318.361ZM10.8056 321.885C10.8056 322.3 10.8952 322.64 11.0046 322.64C11.1189 322.64 11.15 322.355 11.0773 321.971C10.9003 321.032 10.8056 321.003 10.8056 321.885ZM561.077 321.335C560.936 321.392 560.814 321.64 560.805 321.885C560.796 322.13 560.742 322.212 560.684 322.067C560.535 321.693 560.76 321.195 561.07 321.215C561.275 321.228 561.276 321.254 561.077 321.335ZM561.778 325.15C561.712 325.314 561.664 325.265 561.654 325.025C561.645 324.808 561.694 324.687 561.761 324.755C561.829 324.823 561.837 325.001 561.778 325.15ZM562.277 325.883C562.53 326.21 562.523 326.217 562.199 325.961C561.859 325.692 561.751 325.523 561.919 325.523C561.962 325.523 562.123 325.685 562.277 325.883ZM568.392 326.055C568.401 326.295 568.45 326.343 568.515 326.179C568.574 326.031 568.567 325.853 568.499 325.785C568.431 325.716 568.383 325.838 568.392 326.055ZM565.942 326.261C565.951 326.501 566 326.549 566.065 326.385C566.124 326.237 566.117 326.059 566.049 325.99C565.981 325.922 565.933 326.044 565.942 326.261ZM562.386 327.428C562.329 327.569 562.283 327.453 562.283 327.17C562.283 326.887 562.329 326.771 562.386 326.913C562.442 327.054 562.442 327.286 562.386 327.428ZM565.769 327.788C565.769 328.184 565.811 328.347 565.862 328.148C565.913 327.95 565.913 327.626 565.862 327.428C565.811 327.229 565.769 327.392 565.769 327.788ZM10.7468 329.023C10.8088 329.76 10.8933 330.401 10.9348 330.448C11.0712 330.604 10.9644 328.932 10.7976 328.303C10.6945 327.914 10.6757 328.18 10.7468 329.023ZM560.905 328.92C560.721 329.204 560.529 329.435 560.48 329.435C560.38 329.435 560.572 329.062 560.878 328.663C561.23 328.205 561.249 328.391 560.905 328.92ZM568.988 329.552C568.988 329.616 569.083 329.848 569.199 330.067C569.45 330.54 569.805 330.592 569.805 330.156C569.805 329.986 569.902 329.847 570.021 329.847C570.14 329.847 570.18 329.754 570.111 329.641C569.979 329.427 568.988 329.348 568.988 329.552ZM565.565 331.083C565.565 331.479 565.607 331.641 565.658 331.443C565.709 331.245 565.709 330.921 565.658 330.722C565.607 330.524 565.565 330.686 565.565 331.083ZM594.917 331.597C594.917 331.945 595.01 332.115 595.172 332.061C595.312 332.014 595.427 331.805 595.427 331.597C595.427 331.39 595.312 331.181 595.172 331.134C595.01 331.08 594.917 331.25 594.917 331.597ZM595.63 335.458C595.546 335.826 595.46 336.22 595.441 336.334C595.421 336.447 595.33 336.798 595.239 337.114C595.078 337.671 595.404 339.417 595.742 339.802C595.826 339.898 596.005 339.311 596.141 338.498C596.516 336.257 596.064 333.573 595.63 335.458ZM565.149 335.922C565.153 336.261 565.198 336.376 565.25 336.175C565.302 335.975 565.299 335.697 565.243 335.557C565.187 335.418 565.145 335.582 565.149 335.922ZM559.532 337.299C559.467 337.463 559.418 337.414 559.408 337.174C559.4 336.957 559.448 336.836 559.516 336.904C559.583 336.973 559.591 337.15 559.532 337.299ZM564.944 337.569C564.949 337.909 564.994 338.023 565.046 337.823C565.098 337.622 565.095 337.344 565.039 337.205C564.983 337.065 564.94 337.229 564.944 337.569ZM12.7708 338.702C12.898 339.44 12.9944 339.659 13.1263 339.508C13.1675 339.461 13.0765 339.098 12.924 338.702L12.6467 337.981L12.7708 338.702ZM564.569 339.834C564.568 340.853 564.603 341.296 564.646 340.818C564.688 340.341 564.689 339.507 564.647 338.965C564.605 338.424 564.569 338.815 564.569 339.834ZM596.361 339.978C595.93 340.959 596.292 345.476 596.777 345.174C597.001 345.034 597.02 339.588 596.797 339.449C596.709 339.394 596.512 339.632 596.361 339.978ZM568.824 340.658C568.828 340.998 568.873 341.112 568.925 340.911C568.977 340.711 568.974 340.433 568.918 340.294C568.862 340.154 568.82 340.318 568.824 340.658ZM562.594 342.859C562.529 343.023 562.481 342.974 562.471 342.734C562.462 342.517 562.51 342.396 562.578 342.464C562.646 342.532 562.653 342.71 562.594 342.859ZM562.39 343.888C562.325 344.052 562.276 344.004 562.267 343.764C562.258 343.547 562.306 343.425 562.374 343.494C562.442 343.562 562.449 343.74 562.39 343.888ZM562.186 345.124C562.121 345.288 562.072 345.239 562.063 344.999C562.054 344.782 562.102 344.661 562.17 344.729C562.237 344.797 562.245 344.975 562.186 345.124ZM561.982 345.947C561.917 346.112 561.868 346.063 561.858 345.823C561.85 345.606 561.898 345.484 561.966 345.553C562.033 345.621 562.041 345.799 561.982 345.947ZM596.656 345.697C596.586 345.811 596.596 346.484 596.679 347.193C596.796 348.205 596.859 348.372 596.975 347.968C597.324 346.744 597.08 345.005 596.656 345.697ZM13.8841 346.852C13.8939 347.092 13.9423 347.141 14.0074 346.977C14.0665 346.828 14.0591 346.651 13.9913 346.582C13.9235 346.514 13.8754 346.635 13.8841 346.852ZM561.778 347.183C561.712 347.347 561.664 347.298 561.654 347.058C561.645 346.841 561.694 346.72 561.761 346.788C561.829 346.857 561.837 347.034 561.778 347.183ZM14.1828 348.174C14.2431 348.57 14.3476 349.291 14.415 349.775C14.4823 350.26 14.6224 350.709 14.7261 350.774C14.9411 350.908 14.7747 349.857 14.3519 348.408C14.1397 347.681 14.0995 347.625 14.1828 348.174ZM561.369 349.448C561.304 349.612 561.256 349.563 561.246 349.323C561.237 349.106 561.285 348.985 561.353 349.053C561.421 349.122 561.428 349.299 561.369 349.448ZM561.165 350.272C561.1 350.436 561.052 350.387 561.042 350.147C561.033 349.93 561.081 349.809 561.149 349.877C561.217 349.945 561.224 350.123 561.165 350.272ZM563.413 350.795C563.361 350.996 563.315 350.882 563.311 350.542C563.307 350.202 563.349 350.038 563.405 350.178C563.461 350.317 563.465 350.595 563.413 350.795ZM596.472 351.514C596.345 352.892 596.516 357.749 596.685 357.578C596.727 357.537 596.854 355.983 596.968 354.125C597.082 352.268 597.225 350.586 597.285 350.387C597.363 350.131 597.281 350.027 597.001 350.027C596.663 350.027 596.59 350.232 596.472 351.514ZM560.961 351.507C560.896 351.671 560.847 351.623 560.838 351.383C560.829 351.166 560.877 351.044 560.945 351.113C561.012 351.181 561.02 351.359 560.961 351.507ZM563.207 351.919C563.142 352.083 563.093 352.034 563.083 351.795C563.075 351.577 563.123 351.456 563.191 351.524C563.258 351.593 563.266 351.77 563.207 351.919ZM560.757 352.331C560.692 352.495 560.643 352.446 560.633 352.206C560.625 351.989 560.673 351.868 560.741 351.936C560.808 352.005 560.816 352.182 560.757 352.331ZM552.875 357.354C552.885 357.594 552.933 357.643 552.998 357.479C553.057 357.33 553.05 357.153 552.982 357.084C552.915 357.016 552.866 357.137 552.875 357.354ZM552.671 358.401C552.662 358.534 552.602 358.812 552.537 359.019C552.426 359.378 552.432 359.378 552.654 359.028C552.783 358.826 552.843 358.548 552.788 358.41C552.715 358.23 552.683 358.228 552.671 358.401ZM552.34 359.925C552.266 360.046 552.249 360.189 552.303 360.243C552.356 360.297 552.455 360.198 552.521 360.023C552.659 359.66 552.542 359.596 552.34 359.925ZM551.87 361.764C551.87 362.048 551.917 362.164 551.973 362.022C552.03 361.88 552.03 361.649 551.973 361.507C551.917 361.366 551.87 361.481 551.87 361.764ZM564.292 361.955C564.292 362.613 564.409 362.703 564.874 362.406C565.244 362.169 565.09 361.477 564.647 361.391C564.372 361.338 564.292 361.465 564.292 361.955ZM591.987 361.713C591.933 361.911 591.545 364.251 591.125 366.912C590.704 369.574 590.316 371.798 590.263 371.854C590.209 371.911 590.124 371.842 590.074 371.7C589.977 371.426 589.405 371.338 589.404 371.597C589.378 377.725 588.85 381.396 587.347 385.883C586.73 387.726 586.344 389.208 586.402 389.513C586.457 389.804 586.211 390.846 585.837 391.907C585.177 393.779 585.172 393.785 584.428 393.849C583.439 393.934 583.175 394.398 582.885 396.565C582.162 401.966 581.348 404.987 579.063 410.743C577.211 415.406 576.92 416.564 576.567 420.657C576.455 421.96 576.218 423.436 576.04 423.938C575.564 425.284 575.997 425.544 576.549 424.243C576.786 423.687 577.101 423.162 577.25 423.078C577.574 422.895 577.956 421.198 578.792 416.23C579.628 411.26 579.749 410.892 581.155 409.056L582.361 407.483L582.463 409.523C582.519 410.645 582.63 411.628 582.709 411.708C582.937 411.938 583.484 411.643 583.484 411.29C583.484 411.114 584.176 408.845 585.021 406.249C586.897 400.491 587.311 398.64 587.565 394.862C587.803 391.339 588.016 390.111 588.778 387.871C589.097 386.933 589.508 385.264 589.691 384.161C589.874 383.059 590.109 381.933 590.212 381.659C590.477 380.955 590.839 380.788 590.973 381.306C591.112 381.843 591.446 381.875 591.446 381.351C591.446 381.139 591.854 379.803 592.354 378.383C593.505 375.11 593.931 372.366 593.96 368.045C593.983 364.479 593.728 362.746 593.052 361.88C592.575 361.268 592.128 361.198 591.987 361.713ZM560.548 362.64C560.492 362.781 560.445 362.665 560.445 362.382C560.445 362.099 560.492 361.983 560.548 362.125C560.605 362.266 560.605 362.498 560.548 362.64ZM551.65 362.708C551.66 362.948 551.708 362.997 551.774 362.833C551.833 362.684 551.825 362.506 551.757 362.438C551.69 362.37 551.641 362.491 551.65 362.708ZM17.3549 363.738C17.3647 363.978 17.4131 364.026 17.4782 363.862C17.5372 363.714 17.5299 363.536 17.4621 363.468C17.3943 363.399 17.3461 363.521 17.3549 363.738ZM560.374 364.55C560.311 364.613 560.197 364.499 560.12 364.296C560.009 364.002 560.033 363.979 560.234 364.181C560.374 364.32 560.437 364.487 560.374 364.55ZM17.6083 364.651C17.6759 364.936 17.8341 365.654 17.9603 366.247C18.0862 366.839 18.2665 367.324 18.3608 367.324C18.5268 367.324 17.8108 364.443 17.5934 364.235C17.534 364.179 17.5407 364.366 17.6083 364.651ZM550.911 365.485C550.837 365.605 550.82 365.749 550.874 365.803C550.927 365.856 551.025 365.758 551.092 365.583C551.23 365.22 551.112 365.156 550.911 365.485ZM560.154 372.185C560.086 372.253 559.91 372.261 559.762 372.201C559.599 372.135 559.648 372.087 559.886 372.077C560.101 372.068 560.221 372.116 560.154 372.185ZM546.363 382.157L546.188 382.635L546.072 382.186C546.008 381.94 546.039 381.79 546.141 381.853C546.243 381.917 546.326 381.855 546.326 381.716C546.326 381.578 546.374 381.512 546.432 381.571C546.491 381.63 546.46 381.894 546.363 382.157ZM545.942 383.319C545.702 383.736 545.644 383.603 545.841 383.085C545.911 382.901 546.011 382.794 546.063 382.847C546.116 382.9 546.062 383.112 545.942 383.319ZM544.874 386.452C544.748 386.816 544.61 387.077 544.566 387.033C544.522 386.989 544.589 386.655 544.715 386.292C544.841 385.928 544.98 385.666 545.023 385.71C545.067 385.754 545 386.088 544.874 386.452ZM589.731 386.441C589.673 386.535 589.691 386.853 589.77 387.146C589.899 387.621 589.956 387.649 590.288 387.403C590.592 387.178 590.619 387.046 590.434 386.697C590.197 386.251 589.912 386.146 589.731 386.441ZM544.057 388.717C543.932 389.081 543.793 389.342 543.749 389.298C543.706 389.254 543.773 388.921 543.899 388.557C544.024 388.193 544.163 387.931 544.207 387.975C544.25 388.019 544.183 388.353 544.057 388.717ZM543.288 390.732C543.048 391.149 542.99 391.016 543.187 390.498C543.256 390.314 543.357 390.207 543.409 390.26C543.462 390.313 543.408 390.525 543.288 390.732ZM530.384 419.061C527.182 425.35 520.5 436.302 515.765 443.024L513.862 445.726L512.893 445.839C512.36 445.901 511.842 445.872 511.742 445.775C511.637 445.672 511.913 445.173 512.393 444.593C512.852 444.041 513.811 442.669 514.526 441.544C515.241 440.419 516.153 439.158 516.552 438.742C516.951 438.326 517.631 437.376 518.063 436.632C518.495 435.887 518.967 435.277 519.112 435.277C519.257 435.277 519.376 435.179 519.376 435.059C519.376 434.939 519.466 434.897 519.577 434.966C519.687 435.035 520.113 434.554 520.524 433.897C520.935 433.241 522.041 431.535 522.983 430.106C524.023 428.528 525.21 426.359 526.01 424.574C527.27 421.76 527.39 421.576 528.914 420.128C529.788 419.297 530.529 418.613 530.561 418.608C530.593 418.602 530.513 418.806 530.384 419.061ZM572.72 420.709C572.405 421.119 572.258 421.665 572.434 421.774C572.523 421.83 572.747 421.555 572.932 421.163C573.258 420.474 573.122 420.184 572.72 420.709ZM573.115 422.546C572.669 423.149 572.198 423.853 572.066 424.111C571.82 424.592 571.94 425.074 572.257 424.877C572.531 424.706 574.149 421.675 574.03 421.555C573.972 421.497 573.56 421.943 573.115 422.546ZM566.049 433.75C565.826 434.336 565.932 434.565 566.238 434.157C566.403 433.937 566.538 433.682 566.538 433.591C566.538 433.296 566.177 433.413 566.049 433.75ZM562.659 433.708C562.659 433.75 562.498 433.913 562.302 434.068C561.978 434.324 561.971 434.317 562.224 433.99C562.491 433.647 562.659 433.538 562.659 433.708ZM565.243 436.066C564.883 436.467 564.785 437.131 565.085 437.131C565.184 437.131 565.316 436.936 565.377 436.698C565.439 436.46 565.579 436.321 565.688 436.389C565.804 436.461 565.842 436.34 565.781 436.101C565.65 435.6 565.66 435.601 565.243 436.066ZM566.416 446.448L566.028 446.912L566.487 446.519C566.919 446.151 567.039 445.985 566.876 445.985C566.837 445.985 566.63 446.193 566.416 446.448ZM512.642 447.422C512.523 447.645 511.123 449.568 509.531 451.694C507.939 453.821 505.805 456.676 504.789 458.04C502.476 461.143 494.196 471.487 492.954 472.825C492.055 473.793 492.003 473.818 491.156 473.679C490.124 473.511 488.663 472.904 488.449 472.554C488.15 472.067 488.663 471.896 489.797 472.105C490.706 472.273 490.957 472.252 491.253 471.985C491.607 471.664 491.76 471.195 491.447 471.39C491.357 471.446 491.167 471.419 491.023 471.329C490.758 471.164 490.855 471.007 493.525 467.313C494.255 466.304 494.549 465.69 494.623 465.021C494.695 464.383 494.82 464.106 495.037 464.106C495.971 464.106 500.147 459.955 503.635 455.56C506.722 451.671 509.494 448.848 511.312 447.744C512.684 446.911 512.946 446.847 512.642 447.422ZM560.846 448.801C560.606 449.218 560.548 449.085 560.745 448.567C560.814 448.383 560.915 448.276 560.967 448.329C561.02 448.382 560.966 448.594 560.846 448.801ZM490.112 457.686C489.925 457.894 489.773 458.181 489.773 458.324C489.773 458.467 488.936 459.65 487.913 460.953C486.815 462.352 486.129 463.396 486.238 463.506C486.435 463.705 489.186 460.111 490.101 458.461C490.669 457.436 490.674 457.059 490.112 457.686ZM487.731 472.856C487.731 473.112 485.826 476.873 485.74 476.787C485.531 476.576 486.164 474.582 486.723 473.694C487.221 472.902 487.731 472.478 487.731 472.856ZM490.182 475.998C488.723 477.886 487.118 479.099 487.118 478.314C487.118 478.201 487.216 478.108 487.335 478.108C487.454 478.108 487.49 478.009 487.415 477.887C487.264 477.64 488.081 476.667 488.44 476.667C488.566 476.667 489.079 476.396 489.578 476.065C490.078 475.734 490.517 475.456 490.553 475.447C490.589 475.439 490.422 475.686 490.182 475.998ZM387.488 535.164C385.86 535.727 384.399 536.162 384.24 536.131C383.84 536.053 389.305 534.143 389.937 534.141C390.217 534.14 389.116 534.6 387.488 535.164ZM146.574 539.165C149.58 541.327 159.433 547.753 162.537 549.576C165.131 551.099 168.327 553.269 170.534 555.005C171.304 555.611 172.82 556.575 173.903 557.147C175.939 558.223 177.107 558.978 176.283 558.685C175.545 558.423 172.784 556.818 168.277 554.033C165.829 552.52 163.229 550.925 162.499 550.488C161.769 550.052 159.84 548.816 158.211 547.741C150.81 542.854 147.748 540.73 145.757 539.101C142.121 536.126 142.377 536.146 146.574 539.165ZM393.809 537.773C393.795 538.107 393.291 538.576 393.038 538.491C392.832 538.421 392.851 538.31 393.12 538.009C393.477 537.612 393.821 537.494 393.809 537.773ZM179.132 560.072C180.09 560.642 180.874 561.155 180.874 561.211C180.874 561.328 178.337 559.932 177.591 559.405C176.585 558.695 177.443 559.066 179.132 560.072Z" fill="#21C4DF"/>
</svg>
