<svg width="115" height="124" viewBox="0 0 115 124" fill="none" xmlns="http://www.w3.org/2000/svg">
<path d="M100.547 0C108.279 0.000111684 114.547 6.26808 114.547 14V123.379C107.514 123.363 100.865 117.922 99.4555 111.026C98.6501 107.09 99.4043 103.019 99.3511 99.001C99.3231 96.9115 98.994 94.6459 97.5044 93.1807C93.7153 89.454 86.7676 94.0321 82.1528 91.3975C78.5086 89.3167 78.4657 84.1421 79.0835 79.9893C79.7004 75.8365 80.2265 70.8594 77.0249 68.1455C74.3292 65.8605 70.1582 66.4378 67.0698 68.1553C63.9823 69.8728 61.5097 72.5209 58.52 74.4043C48.6508 80.6193 34.4864 76.668 27.4595 67.3574C20.4328 58.0466 19.8988 44.9267 23.9585 33.9893C25.1113 30.8853 26.6189 27.8212 26.7856 24.5146C26.953 21.2081 25.2996 17.4955 22.1137 16.5986C16.7058 15.0771 12.1498 22.2197 6.54637 21.8154C1.95022 21.4843 -0.746205 15.9105 0.182108 11.3945C1.11068 6.87845 4.46046 3.30936 7.66844 0H100.547Z" fill="#4C2310"/>
</svg>
